<?xml version="1.0" encoding="UTF-8"?>
<svg width="24px" height="24px" viewBox="0 0 24 24" version="1.1" xmlns="http://www.w3.org/2000/svg" xmlns:xlink="http://www.w3.org/1999/xlink">
    <title>icon-评论</title>
    <g id="页面-1" stroke="none" stroke-width="1" fill="none" fill-rule="evenodd">
        <g id="icon-切图" transform="translate(-475, -425)" fill="#666666" fill-rule="nonzero">
            <g id="icon-评论" transform="translate(475, 425)">
                <path d="M17.4736875,4 C18.8631562,4 20,5.13684375 20,6.5263125 L20,14.1052656 C20,15.4947344 18.8631562,16.6315781 17.4736875,16.6315781 L15.747375,16.6315781 L12.2105313,20 L8.6315625,16.6315781 L6.5263125,16.6315781 C5.13684375,16.6315781 4,15.4947344 4,14.1052656 L4,6.5263125 C4,5.13684375 5.13684375,4 6.5263125,4 L17.4736875,4 Z M17.4736875,5.26315625 L6.5263125,5.26315625 C5.81053125,5.26315625 5.26315625,5.81053125 5.26315625,6.5263125 L5.26315625,14.1052656 C5.26315625,14.8210469 5.81053125,15.3684219 6.5263125,15.3684219 L9.13684375,15.3684219 L9.51579688,15.7052656 L12.2105313,18.2736875 L14.9052656,15.70525 L15.2842031,15.3684219 L17.4736875,15.3684219 C18.1894688,15.3684219 18.7368437,14.8210469 18.7368437,14.1052656 L18.7368437,6.5263125 C18.7368437,5.81053125 18.1894688,5.26315625 17.4736875,5.26315625 Z M8.21053125,9.052625 C8.90815318,9.052625 9.4736875,9.61815932 9.4736875,10.3157812 C9.4736875,11.0134032 8.90815318,11.5789375 8.21053125,11.5789375 C7.51290932,11.5789375 6.947375,11.0134032 6.947375,10.3157812 C6.947375,9.61815932 7.51290932,9.052625 8.21053125,9.052625 Z M12,9.052625 C12.6976219,9.052625 13.2631562,9.61815932 13.2631562,10.3157812 C13.2631562,11.0134032 12.6976219,11.5789375 12,11.5789375 C11.3023781,11.5789375 10.7368437,11.0134032 10.7368437,10.3157812 C10.7368437,9.61815932 11.3023781,9.052625 12,9.052625 Z M15.1578906,9.2218558 C15.5487125,8.99621466 16.030225,8.99621466 16.4210469,9.2218558 C16.8118688,9.44749695 17.052625,9.86449897 17.052625,10.3157812 C17.052625,11.0134032 16.4870907,11.5789375 15.7894688,11.5789375 C15.0918468,11.5789375 14.5263125,11.0134032 14.5263125,10.3157812 C14.5263125,9.86449897 14.7670687,9.44749695 15.1578906,9.2218558 Z" id="形状结合"></path>
            </g>
        </g>
    </g>
</svg>