<svg width="24" height="24" viewBox="0 0 24 24" fill="none" xmlns="http://www.w3.org/2000/svg">
<mask id="mask0_16_10075" style="mask-type:luminance" maskUnits="userSpaceOnUse" x="0" y="0" width="24" height="24">
<path fill-rule="evenodd" clip-rule="evenodd" d="M0 0H24V24H0V0Z" fill="white"/>
</mask>
<g mask="url(#mask0_16_10075)">
<mask id="path-2-inside-1_16_10075" fill="white">
<path d="M12.0001 2.35504C6.6613 2.35504 2.33339 6.29869 2.33339 11.0208C2.33339 12.0615 2.75936 13.5427 3.61132 15.2004L3.72003 15.4086L3.03568 18.8846C3.01023 19.0138 3.01057 19.1469 3.0367 19.276C3.14123 19.7927 3.62671 20.1352 4.14144 20.07L4.21513 20.0579L8.04071 19.2839C9.68346 19.8347 11.0032 20.1101 12.0001 20.1101C17.3388 20.1101 21.6667 15.7429 21.6667 11.0208C21.6667 6.29869 17.3388 2.35504 12.0001 2.35504Z"/>
</mask>
<path d="M3.61132 15.2004L1.83856 16.1264L1.83247 16.1146L3.61132 15.2004ZM3.72003 15.4086L5.49275 14.4826L5.8181 15.1054L5.68236 15.7949L3.72003 15.4086ZM3.03568 18.8846L1.07335 18.4982V18.4982L3.03568 18.8846ZM3.0367 19.276L4.99699 18.8794L3.0367 19.276ZM4.14144 20.07L4.46574 22.0435L4.42932 22.0495L4.3927 22.0541L4.14144 20.07ZM4.21513 20.0579L4.6117 22.0182L4.57569 22.0254L4.53944 22.0314L4.21513 20.0579ZM8.04071 19.2839L7.64414 17.3237L8.16888 17.2175L8.67648 17.3877L8.04071 19.2839ZM12.0001 2.35504V4.35504C7.56468 4.35504 4.33339 7.59424 4.33339 11.0208H2.33339H0.333385C0.333385 5.00313 5.75792 0.355042 12.0001 0.355042V2.35504ZM2.33339 11.0208H4.33339C4.33339 11.6098 4.60675 12.7619 5.39016 14.2863L3.61132 15.2004L1.83247 16.1146C0.911978 14.3235 0.333385 12.5132 0.333385 11.0208H2.33339ZM3.61132 15.2004L5.38404 14.2744L5.49275 14.4826L3.72003 15.4086L1.94731 16.3345L1.83859 16.1264L3.61132 15.2004ZM3.72003 15.4086L5.68236 15.7949L4.99801 19.2709L3.03568 18.8846L1.07335 18.4982L1.7577 15.0222L3.72003 15.4086ZM3.03568 18.8846L4.99801 19.2709C5.02346 19.1416 5.02311 19.0086 4.99699 18.8794L3.0367 19.276L1.07641 19.6726C0.998035 19.2852 0.996988 18.8861 1.07335 18.4982L3.03568 18.8846ZM3.0367 19.276L4.99699 18.8794C4.89228 18.3619 4.4069 18.0204 3.89017 18.0858L4.14144 20.07L4.3927 22.0541C2.84652 22.2499 1.39018 21.2236 1.07641 19.6726L3.0367 19.276ZM4.14144 20.07L3.81713 18.0964L3.89082 18.0843L4.21513 20.0579L4.53944 22.0314L4.46574 22.0435L4.14144 20.07ZM4.21513 20.0579L3.81856 18.0976L7.64414 17.3237L8.04071 19.2839L8.43728 21.2442L4.6117 22.0182L4.21513 20.0579ZM8.04071 19.2839L8.67648 17.3877C10.242 17.9126 11.3221 18.1101 12.0001 18.1101V20.1101V22.1101C10.6844 22.1101 9.12487 21.7568 7.40494 21.1802L8.04071 19.2839ZM12.0001 20.1101V18.1101C16.3089 18.1101 19.6667 14.5651 19.6667 11.0208H21.6667H23.6667C23.6667 16.9206 18.3687 22.1101 12.0001 22.1101V20.1101ZM21.6667 11.0208H19.6667C19.6667 7.59424 16.4354 4.35504 12.0001 4.35504V2.35504V0.355042C18.2422 0.355042 23.6667 5.00313 23.6667 11.0208H21.6667Z" fill="#222222" mask="url(#path-2-inside-1_16_10075)"/>
</g>
</svg>
