<svg width="24" height="24" viewBox="0 0 24 24" fill="none" xmlns="http://www.w3.org/2000/svg">
<path d="M12.5333 4L12.5407 4.09639C12.8434 8.03062 15.9694 11.1566 19.9036 11.4593L20 11.4667V12.5333L19.8354 12.5474C15.9317 12.8813 12.8442 15.9932 12.5411 19.8994L12.5333 20H11.4667L11.4593 19.9036C11.1566 15.9694 8.03062 12.8434 4.09639 12.5407L4 12.5333V11.4667L4.16927 11.4521C8.04454 11.1177 11.1177 8.04454 11.4521 4.16927L11.4667 4H12.5333Z" fill="white"/>
<path d="M12.5333 4L12.5407 4.09639C12.8434 8.03062 15.9694 11.1566 19.9036 11.4593L20 11.4667V12.5333L19.8354 12.5474C15.9317 12.8813 12.8442 15.9932 12.5411 19.8994L12.5333 20H11.4667L11.4593 19.9036C11.1566 15.9694 8.03062 12.8434 4.09639 12.5407L4 12.5333V11.4667L4.16927 11.4521C8.04454 11.1177 11.1177 8.04454 11.4521 4.16927L11.4667 4H12.5333Z" fill="url(#paint0_linear_9_337)"/>
<path d="M21.2981 3.05542C20.3726 4.1866 20.3726 5.81333 21.2981 6.94451L20.9445 7.29806L20.9205 7.27884C19.7886 6.3735 18.1783 6.38151 17.0555 7.29806L16.7019 6.94451C17.6274 5.81333 17.6274 4.1866 16.7019 3.05542L17.0555 2.70187C18.193 3.60943 19.807 3.60943 20.9445 2.70187L21.2981 3.05542Z" fill="#1864EB"/>
<defs>
<linearGradient id="paint0_linear_9_337" x1="7.63636" y1="5.45455" x2="12" y2="20" gradientUnits="userSpaceOnUse">
<stop offset="0.355769" stop-color="#1763EB"/>
<stop offset="1" stop-color="#FFE0BF"/>
</linearGradient>
</defs>
</svg>
