<svg width="24" height="24" viewBox="0 0 24 24" fill="none" xmlns="http://www.w3.org/2000/svg">
<path d="M16.2698 4C18.9483 4 21.2004 6.29158 21.2004 9.21973C21.2004 10.6756 20.6387 11.9838 19.7415 12.9258L19.7161 12.9521L19.6926 12.9805C18.2902 14.6875 16.7264 16.3356 14.4104 18.4746L13.3704 19.4229C13.22 19.5583 12.7477 19.9999 12.0002 20C11.2555 20 10.7953 19.5624 10.6389 19.4219C7.39753 16.5097 5.5327 14.5851 4.1438 12.8037L4.1272 12.7822L4.10864 12.7607C3.29937 11.8337 2.80008 10.5925 2.80005 9.21973C2.80005 6.29158 5.05218 4 7.73071 4C8.98344 4.00011 10.1314 4.4944 11.0081 5.32129L11.2864 5.60352L11.9993 6.32812L12.7112 5.60449L12.9788 5.33301C13.8584 4.49887 15.0113 4.00001 16.2698 4Z" stroke="#222222" stroke-width="2"/>
</svg>
