<svg width="22" height="22" viewBox="0 0 22 22" fill="none" xmlns="http://www.w3.org/2000/svg">
<rect width="22" height="22" rx="8" fill="url(#paint0_linear_16_10089)"/>
<rect x="0.5" y="0.5" width="21" height="21" rx="7.5" stroke="white" stroke-opacity="0.4"/>
<path d="M11.4 5L11.537 6.78153C11.6884 8.74864 13.2514 10.3116 15.2185 10.463L17 10.6V11.4L15.1844 11.5553C13.2325 11.7222 11.6888 13.2782 11.5372 15.2313L11.4 17H10.6L10.463 15.2185C10.3116 13.2514 8.74865 11.6884 6.78153 11.537L5 11.4V10.6L6.80305 10.4445C8.74069 10.2773 10.2773 8.74069 10.4445 6.80305L10.6 5H11.4Z" fill="white"/>
<path d="M16.5321 5.70363L16.5076 5.73352C15.9048 6.47025 15.9048 7.52974 16.5076 8.26647L16.5321 8.29636L16.2964 8.53206L16.2489 8.49407C15.5127 7.9052 14.4652 7.91041 13.7349 8.50657L13.7036 8.53206L13.4679 8.29636L13.4924 8.26647C14.0952 7.52974 14.0952 6.47025 13.4924 5.73352L13.4679 5.70363L13.7036 5.46793L13.7527 5.50705C14.4823 6.08921 15.5177 6.08921 16.2473 5.50705L16.2964 5.46793L16.5321 5.70363Z" fill="white"/>
<defs>
<linearGradient id="paint0_linear_16_10089" x1="5" y1="2" x2="11" y2="22" gradientUnits="userSpaceOnUse">
<stop offset="0.355769" stop-color="#1763EB"/>
<stop offset="1" stop-color="#FFE0BF"/>
</linearGradient>
</defs>
</svg>
