<?xml version="1.0" encoding="UTF-8"?>
<svg width="24px" height="24px" viewBox="0 0 24 24" version="1.1" xmlns="http://www.w3.org/2000/svg" xmlns:xlink="http://www.w3.org/1999/xlink">
    <title>icon-点赞</title>
    <g id="页面-1" stroke="none" stroke-width="1" fill="none" fill-rule="evenodd">
        <g id="icon-切图" transform="translate(-571, -425)" fill="#666666" fill-rule="nonzero" stroke="#666666" stroke-width="0.2">
            <g id="icon-点赞" transform="translate(571, 425)">
                <path d="M18.7290077,6.32000118 C17.8680216,5.48000043 16.7610394,5 15.5310593,5 C14.3420912,5 13.1940969,5.48000043 12.3331108,6.32000118 L12.0461219,6.63998896 L11.7181207,6.32000118 C10.8571346,5.48000043 9.75015247,5 8.52017231,5 C7.33120429,5 6.18320999,5.48000043 5.32222387,6.32000118 C3.55925871,8.03999646 3.55925871,10.8800053 5.32222387,12.6399943 L11.5541298,18.8400061 C11.6771278,18.9600062 11.8411188,19 12.0051289,19 C12.1691391,19 12.3331108,18.9200124 12.4561088,18.8400061 L18.6880148,12.6399943 C19.5490009,11.7999936 20,10.6799988 20,9.47999775 C20,8.27999668 19.5899938,7.16000193 18.7290077,6.32000118 Z M17.8680216,11.8168065 L12.0461219,17.6655449 L6.22422214,11.8168065 C4.95322982,10.5260427 4.95322982,8.42856819 6.22422214,7.13780443 C6.83921222,6.53276187 7.65918619,6.16973634 8.52017231,6.16973634 C9.38115842,6.16973634 10.2011516,6.492432 10.8161417,7.13780443 L11.5541298,7.90420427 C11.8001258,8.1462213 12.2101128,8.1462213 12.4151159,7.90420427 L13.153104,7.13780443 C13.7680941,6.53276187 14.5880873,6.16973634 15.4490734,6.16973634 C16.3100595,6.16973634 17.1300335,6.492432 17.7450236,7.13780443 C18.3600136,7.74284699 18.6880148,8.58990657 18.6880148,9.47731492 C18.6880148,10.3647233 18.4420187,11.2117639 17.8680216,11.8168065 Z" id="形状"></path>
            </g>
        </g>
    </g>
</svg>