<svg width="18" height="15" viewBox="0 0 18 15" fill="none" xmlns="http://www.w3.org/2000/svg">
<path fill-rule="evenodd" clip-rule="evenodd" d="M12.2638 4.8578C15.1833 4.8578 17.55 6.82788 17.55 9.25802C17.55 10.5838 16.8378 11.7772 15.7235 12.5838C15.6338 12.6476 15.5755 12.7523 15.5755 12.8706C15.5755 12.9094 15.5838 12.9454 15.5941 12.9827C15.6829 13.3144 15.8256 13.8454 15.8323 13.8702L15.8445 13.9124C15.8529 13.9409 15.8607 13.9698 15.8607 13.9989C15.8607 14.096 15.7818 14.175 15.6846 14.175C15.646 14.175 15.6149 14.1607 15.5826 14.1421L14.4254 13.4747C14.3385 13.4245 14.2462 13.3936 14.1446 13.3936C14.0905 13.3936 14.0384 13.4017 13.9894 13.4167C13.4494 13.5719 12.8669 13.6581 12.2638 13.6581C9.3445 13.6581 6.97775 11.688 6.97775 9.25802C6.97775 6.82788 9.3445 4.8578 12.2638 4.8578ZM6.34328 0C9.50791 0 12.1306 1.92905 12.6083 4.45174C12.4943 4.446 12.3797 4.44228 12.2639 4.44228C9.06865 4.44228 6.47855 6.59848 6.47855 9.25797C6.47855 9.70654 6.55396 10.1401 6.69175 10.552C6.57644 10.5572 6.46029 10.5604 6.34328 10.5604C5.61946 10.5604 4.92067 10.4569 4.27276 10.2708C4.21375 10.2527 4.15119 10.2429 4.08627 10.2429C3.96453 10.2429 3.85396 10.2801 3.74946 10.3404L2.36083 11.1411C2.32211 11.1634 2.28458 11.1806 2.23859 11.1806C2.12175 11.1806 2.02724 11.086 2.02724 10.9693C2.02724 10.917 2.04787 10.8649 2.06139 10.815C2.06934 10.7851 2.24028 10.1478 2.34697 9.74995C2.35931 9.70519 2.36928 9.66212 2.36928 9.61534C2.36928 9.47331 2.29929 9.34782 2.19175 9.27115C0.854518 8.30324 0 6.87124 0 5.28031C0 2.3641 2.84 0 6.34328 0ZM10.5017 7.1459C10.1124 7.1459 9.79695 7.46105 9.79695 7.84983C9.79695 8.23878 10.1124 8.55393 10.5017 8.55393C10.891 8.55393 11.2067 8.23878 11.2067 7.84983C11.2067 7.46105 10.891 7.1459 10.5017 7.1459ZM14.0259 7.1459C13.6365 7.1459 13.321 7.46105 13.321 7.84983C13.321 8.23878 13.6365 8.55393 14.0259 8.55393C14.4151 8.55393 14.7306 8.23878 14.7306 7.84983C14.7306 7.46105 14.4151 7.1459 14.0259 7.1459ZM4.22897 2.74562C3.76181 2.74562 3.38324 3.12393 3.38324 3.59057C3.38324 4.05721 3.76181 4.43536 4.22897 4.43536C4.69596 4.43536 5.0747 4.05721 5.0747 3.59057C5.0747 3.12393 4.69596 2.74562 4.22897 2.74562ZM8.45777 2.74562C7.99061 2.74562 7.61187 3.12393 7.61187 3.59057C7.61187 4.05721 7.99061 4.43536 8.45777 4.43536C8.92493 4.43536 9.3035 4.05721 9.3035 3.59057C9.3035 3.12393 8.92493 2.74562 8.45777 2.74562Z" fill="#04CA63"/>
</svg>
