<?xml version="1.0" encoding="UTF-8"?>
<svg width="20px" height="20px" viewBox="0 0 20 20" version="1.1" xmlns="http://www.w3.org/2000/svg" xmlns:xlink="http://www.w3.org/1999/xlink">
    <title>icon-删除对话列表</title>
    <g id="页面-1" stroke="none" stroke-width="1" fill="none" fill-rule="evenodd">
        <g id="icon-切图" transform="translate(-459, -492)" fill="#FF3B30" fill-rule="nonzero">
            <g id="icon-删除对话列表" transform="translate(459, 492)">
                <path d="M11.4578678,2 C12.3984761,1.99996342 13.170725,2.73587183 13.2059978,3.66586664 L13.2071658,3.73077053 L13.207,4.307 L16.4142055,4.30768212 C16.7287669,4.3062495 16.9877795,4.55193876 16.9995822,4.86295377 C17.0113849,5.17396877 16.7717225,5.4381836 16.4579378,5.46008749 L16.4142055,5.46154863 L15.5395694,5.46178632 L15.5378001,5.507109 L14.7054346,15.9370297 C14.6592964,16.5149947 14.1868626,16.9693398 13.6016384,16.9985633 L13.5430439,17 L6.45721696,17 C5.8711627,17 5.37611145,16.5697389 5.30065161,15.9947164 L5.29484341,15.9370297 L4.46246075,5.50682167 L4.462,5.461 L3.58605539,5.46154863 C3.2713934,5.46311973 3.0122241,5.21739183 3.00041779,4.90627664 C2.98861148,4.59516144 3.2284274,4.33089673 3.5423231,4.30912508 L3.58605539,4.30768212 L6.793,4.307 L6.79310146,3.73077053 C6.79310146,2.80012113 7.53684791,2.03604869 8.47679467,2.00114934 L8.5423931,2 L11.4578678,2 Z M7.351,5.461 L5.629,5.461 L6.45723405,15.8461642 L13.5430268,15.8461642 L14.371,5.461 L12.6651341,5.46276475 C12.6587687,5.4632059 12.6523742,5.46354656 12.6459521,5.46378514 L12.599,5.461 L7.41645058,5.46282024 C7.41035231,5.46323456 7.40422739,5.46355666 7.3980772,5.46378514 L7.351,5.461 Z M12.9156222,13.5384589 L12.9156222,14.1153937 C12.9156222,14.2684048 12.8541872,14.4151487 12.7448326,14.5233422 C12.6354781,14.6315358 12.4871621,14.6923116 12.3325136,14.6923116 L7.66774728,14.6923116 C7.51309884,14.6923116 7.36478284,14.6315358 7.25542827,14.5233422 C7.1460737,14.4151487 7.08463868,14.2684048 7.08463868,14.1153937 L7.08463868,13.5384589 L12.9156222,13.5384589 Z M11.4578678,3.15383575 L8.5423931,3.15383575 C8.23724596,3.15373791 7.98363094,3.38643463 7.96075363,3.68750127 L7.9592845,3.73077053 L7.959,4.307 L12.04,4.307 L12.0409764,3.73077053 C12.0410753,3.42885422 11.8058885,3.17792441 11.5016001,3.15528933 L11.4578678,3.15383575 Z" id="形状结合"></path>
            </g>
        </g>
    </g>
</svg>