<?xml version="1.0" encoding="UTF-8"?>
<svg width="22px" height="22px" viewBox="0 0 22 22" version="1.1" xmlns="http://www.w3.org/2000/svg" xmlns:xlink="http://www.w3.org/1999/xlink">
    <title>icon-外放悬浮菜单</title>
    <g id="页面-1" stroke="none" stroke-width="1" fill="none" fill-rule="evenodd">
        <g id="icon-切图" transform="translate(-280, -545)" fill="#333333" fill-rule="nonzero">
            <g id="icon-外放悬浮菜单" transform="translate(280, 545)">
                <path d="M13.6995434,3.13902689 C13.2991321,2.92910286 12.8153101,2.95867075 12.4434413,3.21579126 L6.80123642,7.07430322 L4.21590256,7.07430322 C3.54438166,7.07431176 3,7.61868487 3,8.29020577 L3,13.1343736 C3,13.8044648 3.54336743,14.3502916 4.21590256,14.3502916 L6.80125189,14.3502916 L12.4422039,18.1880773 C12.8142429,18.4442522 13.2976303,18.4730747 13.6974744,18.2629241 C14.0973185,18.0527734 14.3477058,17.6382892 14.3477058,17.1865829 L14.3477058,4.21727017 C14.3488179,3.76533521 14.0991868,3.35006763 13.6995434,3.13904236 L13.6995434,3.13902689 Z M6.24203044,12.7286654 L5.02611242,12.7286654 C4.80204599,12.7286654 4.62040242,12.5470237 4.62040242,12.3229572 L4.62040242,9.08213325 C4.62007955,8.9743212 4.66268029,8.87081355 4.73880055,8.79446403 C4.81492081,8.71811451 4.91829988,8.67520317 5.02611242,8.67520317 L6.24203044,8.67520317 L6.24203044,12.7286654 L6.24203044,12.7286654 Z M12.7272978,16.4373144 L7.8624347,13.1136628 L7.8624347,8.30239403 L12.7272978,4.97874247 L12.7272978,16.4373144 Z M15.9681063,7.86500878 C15.5211291,7.86569142 15.1591261,8.22822544 15.1591261,8.67520317 L15.1591261,12.7286654 C15.1578654,13.0189661 15.3120111,13.2877593 15.5632095,13.433277 C15.814408,13.5787947 16.1242639,13.5787947 16.3754624,13.433277 C16.6266608,13.2877593 16.7808065,13.0189661 16.7795459,12.7286654 L16.7795459,8.67520317 C16.779521,8.22774266 16.4167733,7.86500878 15.9693128,7.86500878 L15.9681063,7.86500878 Z M18.4011643,6.24460451 C17.9537038,6.24460451 17.5909544,6.6073384 17.5909544,7.05479891 L17.5909544,14.3502761 C17.5929035,14.7963566 17.9550718,15.156946 18.4011565,15.156946 C18.8472412,15.156946 19.2094096,14.7963566 19.2113596,14.3502761 L19.2113596,7.05479891 C19.2116789,6.83971162 19.1264613,6.63332384 18.9744861,6.48111943 C18.8225109,6.32891502 18.6162518,6.24338259 18.4011643,6.24338259 L18.4011643,6.24460451 Z" id="形状"></path>
            </g>
        </g>
    </g>
</svg>