<?xml version="1.0" encoding="UTF-8"?>
<svg width="48px" height="48px" viewBox="0 0 48 48" version="1.1" xmlns="http://www.w3.org/2000/svg" xmlns:xlink="http://www.w3.org/1999/xlink">
    <title>分享微信</title>
    <defs>
        <rect id="path-1" x="0" y="0" width="48" height="48"></rect>
    </defs>
    <g id="页面-1" stroke="none" stroke-width="1" fill="none" fill-rule="evenodd">
        <g id="icon-切图" transform="translate(-341, -217)">
            <g id="icon-微信" transform="translate(341, 217)">
                <mask id="mask-2" fill="white">
                    <use xlink:href="#path-1"></use>
                </mask>
                <use id="容器-707" fill="#34C759" fill-rule="nonzero" xlink:href="#path-1"></use>
                <path d="M29.021862,19.6490188 C29.3475189,19.6490188 29.6731777,19.6790996 29.9971466,19.7075195 C29.1256599,15.6632333 24.7539091,12.6416016 19.7738619,12.6416016 C14.2049932,12.661141 9.6418457,16.4249475 9.6418457,21.2042141 C9.6418457,23.9595175 11.1629343,26.231986 13.6896248,27.9913969 L12.6697528,31.009594 L16.2163444,29.2519894 C17.4869423,29.5005264 18.5069046,29.7490635 19.7613382,29.7490635 C20.086997,29.7490635 20.3966675,29.7348537 20.7061605,29.7063713 C20.5050316,29.0200481 20.4008493,28.3089743 20.396637,27.5937977 C20.4109955,23.2121611 24.2081375,19.650795 29.0236988,19.650795 L29.021862,19.6490188 L29.021862,19.6490188 Z M23.5711489,16.9255719 C24.3405905,16.9255719 24.8416004,17.4226446 24.8416004,18.1860161 C24.8416004,18.9317136 24.3405905,19.4465785 23.5711489,19.4465785 C22.8176956,19.4465785 22.0500298,18.9477291 22.0500298,18.1859865 C22.0500298,17.4226437 22.8176956,16.9255714 23.5711489,16.9255719 Z M16.4793863,19.4465799 C15.7278862,19.4465799 14.9584451,18.9477305 14.9584451,18.185987 C14.9584451,17.4226451 15.7278862,16.9255729 16.4793863,16.9255729 C17.2328401,16.9255729 17.7499838,17.4226451 17.7499838,18.1860166 C17.7499838,18.9317136 17.2489443,19.4465799 16.4793863,19.4465799 Z M38.2734432,27.4889975 C38.2734432,23.4731321 34.225666,20.1904998 29.6588192,20.1904998 C24.8433762,20.1904998 21.0461149,23.4731321 21.0461149,27.4889975 C21.0461149,31.5191021 24.8433762,34.7892723 29.6588192,34.7892723 C30.6645699,34.7892723 31.6844997,34.5407333 32.7027721,34.2904224 L35.4800148,35.79949 L34.712347,33.2926044 C36.7523594,31.7552032 38.2734432,29.745451 38.2734432,27.4889975 Z M26.8672791,26.228404 C26.3662701,26.228404 25.8473186,25.7313328 25.8473186,25.2165279 C25.8473186,24.7194548 26.3662701,24.2046194 26.8672791,24.2046194 C27.6367207,24.2046194 28.1378784,24.7034683 28.1378784,25.2165279 C28.1378784,25.7313633 27.6367207,26.2284346 26.8672791,26.228404 Z M32.437952,26.228404 C31.9351387,26.228404 31.4322033,25.7313328 31.4322033,25.2165279 C31.4322033,24.7194548 31.9333305,24.2046194 32.437952,24.2046194 C33.205616,24.2046194 33.7084026,24.7034683 33.7084026,25.2165279 C33.7084026,25.7313633 33.205616,26.2284346 32.437952,26.228404 Z" id="路径" fill="#FFFFFF" fill-rule="nonzero" mask="url(#mask-2)"></path>
            </g>
        </g>
    </g>
</svg>