<?xml version="1.0" encoding="UTF-8"?>
<svg width="24px" height="24px" viewBox="0 0 24 24" version="1.1" xmlns="http://www.w3.org/2000/svg" xmlns:xlink="http://www.w3.org/1999/xlink">
    <title>搜索/icon</title>
    <g id="页面-1" stroke="none" stroke-width="1" fill="none" fill-rule="evenodd">
        <g id="icon-切图" transform="translate(-712, -425)" fill="#333333" fill-rule="nonzero">
            <g id="icon-搜索" transform="translate(712, 425)">
                <path d="M19.6569131,18.0022336 L16.5083761,14.8536967 C16.490507,14.8358276 16.470851,14.8179585 16.451195,14.8000893 C17.2392227,13.68327 17.7020326,12.321644 17.7020326,10.8510163 C17.7020326,7.06633907 14.6339066,4 10.8510163,4 C7.06812598,4 4,7.06812598 4,10.8528032 C4,14.6374805 7.06812598,17.7038195 10.8510163,17.7038195 C12.3180701,17.7038195 13.6779093,17.2427965 14.7929417,16.4565557 C14.8108108,16.4762117 14.8286799,16.4958678 14.846549,16.5137369 L17.995086,19.6622738 C18.2238106,19.8909984 18.5257985,20.0071476 18.8259996,20.0071476 C19.1262006,20.0071476 19.4264016,19.8927853 19.6569131,19.6622738 C20.1143623,19.2048247 20.1143623,18.4614697 19.6569131,18.0022336 L19.6569131,18.0022336 Z M12.7862408,15.4344427 C12.1751173,15.6935448 11.5228948,15.8239893 10.8510163,15.8239893 C10.1791378,15.8239893 9.52870226,15.6935448 8.91579182,15.4344427 C8.32432432,15.1842752 7.79182488,14.8251061 7.3343757,14.3676569 C6.87692651,13.9102077 6.51775743,13.3777083 6.2675899,12.7862408 C6.00848783,12.1751173 5.87804333,11.5228948 5.87804333,10.8510163 C5.87804333,10.1791378 6.00848783,9.52870226 6.2675899,8.91579182 C6.51775743,8.32432432 6.87692651,7.79182488 7.3343757,7.3343757 C7.79182488,6.87692651 8.32432432,6.51775743 8.91579182,6.2675899 C9.52691535,6.00848783 10.1791378,5.87804333 10.8510163,5.87804333 C11.5228948,5.87804333 12.1733304,6.00848783 12.7862408,6.2675899 C13.3777083,6.51775743 13.9102077,6.87692651 14.3676569,7.3343757 C14.8251061,7.79182488 15.1842752,8.32432432 15.4344427,8.91579182 C15.6935448,9.52691535 15.8239893,10.1791378 15.8239893,10.8510163 C15.8239893,11.5228948 15.6935448,12.1733304 15.4344427,12.7862408 C15.1842752,13.3777083 14.8251061,13.9102077 14.3676569,14.3676569 C13.9102077,14.8251061 13.3777083,15.1842752 12.7862408,15.4344427 Z" id="形状"></path>
            </g>
        </g>
    </g>
</svg>