<svg width="32" height="32" viewBox="0 0 32 32" fill="none" xmlns="http://www.w3.org/2000/svg">
<path d="M21.8676 6.70967C23.428 8.4369 23.3757 11.1036 21.7111 12.7681L20.1555 11.2125C20.961 10.4069 21.0118 9.13169 20.3066 8.26758L20.1555 8.10123L21.7111 6.5456L21.8676 6.70967Z" fill="white"/>
<path d="M24.8224 3.43433C28.259 6.87094 28.259 12.4428 24.8224 15.8794L23.2667 14.3238C25.7637 11.8268 25.8417 7.82691 23.5007 5.23607L23.2667 4.98996L24.8224 3.43433Z" fill="white"/>
<path d="M17.0439 8.10156C16.1851 8.96074 16.1849 10.3538 17.0439 11.2129L23.2666 17.4355C24.1257 18.2945 25.5188 18.2944 26.3779 17.4355C26.5974 17.216 26.8029 16.9866 27 16.7539V23C27 24.6569 25.6569 26 24 26H8C6.34315 26 5 24.6569 5 23V11C5 9.34315 6.34315 8 8 8H17.1455L17.0439 8.10156ZM8 15.25H10.75V22.5H13.25V15.25H16V12.75H8V15.25Z" fill="white"/>
</svg>
