<svg width="32" height="32" viewBox="0 0 32 32" fill="none" xmlns="http://www.w3.org/2000/svg">
<path d="M24 4C25.6569 4 27 5.34315 27 7V21C27 22.3057 26.1645 23.413 25 23.8252V9C25 7.34315 23.6569 6 22 6H9.17383C9.58594 4.83532 10.6941 4 12 4H24Z" fill="white"/>
<path d="M20 8C21.6569 8 23 9.34315 23 11V25C23 26.6569 21.6569 28 20 28H8C6.34315 28 5 26.6569 5 25V11C5 9.34315 6.34315 8 8 8H20ZM8.24902 15.2158C7.73634 16.1038 8.04079 17.2402 8.92871 17.7529C9.81662 18.2654 10.9521 17.961 11.4648 17.0732C11.9454 16.2407 11.7076 15.191 10.9443 14.6406L10.7852 14.5371L11.7139 12.9287L10.1055 12L8.24902 15.2158ZM12.8906 15.2168L12.8047 15.3857C12.4188 16.2441 12.7378 17.2722 13.5703 17.7529C14.4583 18.2656 15.5937 17.9611 16.1064 17.0732C16.5872 16.2406 16.3495 15.191 15.5859 14.6406L15.4268 14.5371L16.3555 12.9287L14.748 12L12.8906 15.2168Z" fill="white"/>
</svg>
