<svg width="32" height="32" viewBox="0 0 32 32" fill="none" xmlns="http://www.w3.org/2000/svg">
<circle cx="12.1641" cy="16" r="1.25" fill="black"/>
<path d="M18.2275 8.8584C20.0552 10.686 21.1855 13.211 21.1855 16C21.1855 18.789 20.0552 21.314 18.2275 23.1416L16.6719 21.5859C18.1016 20.1562 18.9863 18.1815 18.9863 16C18.9863 13.8185 18.1016 11.8438 16.6719 10.4141L18.2275 8.8584ZM15.3994 11.6865C16.5032 12.7903 17.1855 14.3155 17.1855 16C17.1855 17.6845 16.5032 19.2097 15.3994 20.3135L13.8438 18.7578C14.5496 18.052 14.9863 17.077 14.9863 16C14.9863 14.923 14.5496 13.948 13.8438 13.2422L15.3994 11.6865Z" fill="black"/>
<circle cx="16" cy="16" r="13" stroke="url(#paint0_linear_16_9954)" stroke-width="2.4"/>
<defs>
<linearGradient id="paint0_linear_16_9954" x1="16" y1="16" x2="26.2917" y2="27.375" gradientUnits="userSpaceOnUse">
<stop/>
<stop offset="0.703047" stop-color="#1763EB"/>
<stop offset="0.961244" stop-color="#FADDC0"/>
</linearGradient>
</defs>
</svg>
