<svg width="32" height="32" viewBox="0 0 32 32" fill="none" xmlns="http://www.w3.org/2000/svg">
<path d="M15.1185 5.17273C15.463 4.35963 16.6154 4.35963 16.96 5.17273L19.7851 11.8394C19.9308 12.1833 20.2561 12.4174 20.6284 12.4463L27.6802 12.9938C28.5558 13.0618 28.9248 14.1446 28.2729 14.7331L22.9142 19.5707C22.6481 19.8109 22.531 20.1751 22.6071 20.5254L24.1643 27.6891C24.3521 28.5528 23.4092 29.2175 22.6588 28.7506L16.5676 24.9601C16.2441 24.7588 15.8343 24.7588 15.5109 24.9601L9.41961 28.7506C8.66921 29.2175 7.72636 28.5528 7.91409 27.6891L9.47057 20.5288C9.5471 20.1767 9.42832 19.8107 9.15965 19.5706L3.74899 14.7365C3.09203 14.1496 3.46007 13.0614 4.33844 12.9938L11.4495 12.4459C11.8222 12.4172 12.1477 12.1832 12.2935 11.8391L15.1185 5.17273Z" fill="white"/>
</svg>
