<svg width="32" height="32" viewBox="0 0 32 32" fill="none" xmlns="http://www.w3.org/2000/svg">
<path d="M16 15V5M16 5L11 10M16 5L21 10" stroke="white" stroke-width="2.5"/>
<path d="M23.8701 10.1289C25.1025 10.5019 26 11.6458 26 13V23C26 24.6569 24.6569 26 23 26H9C7.34315 26 6 24.6569 6 23V13C6 11.6461 6.89694 10.5022 8.12891 10.1289L12.4141 14.4141C12.7891 14.7891 13.2978 14.9999 13.8281 15H18.1719C18.7022 14.9999 19.2109 14.7891 19.5859 14.4141L23.8701 10.1289ZM12 21.75V24.25H20V21.75H12Z" fill="white"/>
</svg>
