<?xml version="1.0" encoding="UTF-8"?>
<svg width="30px" height="30px" viewBox="0 0 30 30" version="1.1" xmlns="http://www.w3.org/2000/svg" xmlns:xlink="http://www.w3.org/1999/xlink">
    <title>icon-收藏</title>
    <g id="页面-1" stroke="none" stroke-width="1" fill="none" fill-rule="evenodd">
        <g id="icon-切图" transform="translate(-50, -85)" fill="#666666" fill-rule="nonzero">
            <g id="icon-收藏-" transform="translate(50, 85)">
                <path d="M15.9895556,7.12254851 C16.2013192,7.24734603 16.3852996,7.41674489 16.5546893,7.64432811 L18.5072572,11.5586404 L22.8939818,12.1859825 C23.1844879,12.2335094 23.4726132,12.4135916 23.680783,12.6703498 C23.8542083,12.9258532 23.9509597,13.1898074 24,13.5411005 C24,13.7876178 23.8690918,14.0319045 23.6542795,14.2428842 L20.4651826,17.2953068 L21.2238758,21.6066605 C21.267625,21.907498 21.2270626,22.1895469 21.093478,22.4126613 L21.0188935,22.5191214 C20.8036113,22.7834135 20.5554877,22.9458778 20.2145817,22.9917866 L20.0514052,22.9917866 C19.8574181,22.9917866 19.6649104,22.9445203 19.4721717,22.849818 L15.5224956,20.8124297 L11.581544,22.8457082 C11.0362177,23.1581289 10.3175908,22.9759673 9.99046274,22.4806032 L9.93042446,22.3774081 C9.78534334,22.1399158 9.73164816,21.8498494 9.78239455,21.6009506 L10.5387743,17.2962824 L7.34929998,14.241164 C6.92177851,13.8212753 6.87996087,13.1261708 7.26113244,12.6573801 L7.34929998,12.5605718 C7.52821482,12.3848512 7.75346161,12.280062 8.02979189,12.2260626 L12.415608,11.5986409 L14.369798,7.68297514 C14.4981571,7.43084012 14.6976018,7.22630287 14.933441,7.11360703 L15.0542328,7.06511739 C15.3603112,6.96490496 15.6956064,6.97756841 15.9895556,7.12254851 Z M15.4433579,9.0903128 L13.7798637,12.4675614 C13.5894646,12.8415829 13.2500516,13.0851897 12.858269,13.1332435 L9.05372112,13.6767191 L11.7845002,16.2868367 C12.0283588,16.5263415 12.1463367,16.8427246 12.1371179,17.1908687 L12.1253756,17.3418863 L11.4600935,21.0417012 L15.3526125,19.0568843 L15.5303536,19.0568843 L19.4217373,21.0417012 L18.7605426,17.3555009 C18.6744176,17.017191 18.7698371,16.6702528 19.0041649,16.3890579 L19.0984659,16.2868367 L21.866213,13.6757435 L18.0693714,13.1337571 C17.7380507,13.0930886 17.4303983,12.8839514 17.2183894,12.5835745 L17.1435099,12.4668072 L15.4433579,9.0903128 Z" id="icon-收藏"></path>
            </g>
        </g>
    </g>
</svg>