<?xml version="1.0" encoding="UTF-8"?>
<svg width="20px" height="20px" viewBox="0 0 20 20" version="1.1" xmlns="http://www.w3.org/2000/svg" xmlns:xlink="http://www.w3.org/1999/xlink">
    <title>icon-编辑对话列表</title>
    <g id="页面-1" stroke="none" stroke-width="1" fill="none" fill-rule="evenodd">
        <g id="icon-切图" transform="translate(-415, -492)" fill="#007AFF" fill-rule="nonzero">
            <g id="icon-编辑对话列表" transform="translate(415, 492)">
                <path d="M16.0500959,3.16888469 C16.1887468,3.02515236 16.3941852,2.9674563 16.5873938,3.01798796 C16.7806025,3.06851963 16.9314878,3.21940836 16.9820151,3.41261825 C17.0325425,3.60582814 16.9748419,3.81126535 16.8311066,3.94991316 L9.02027444,11.7609229 C8.8807264,11.900471 8.67733069,11.9549708 8.48670451,11.9038926 C8.29607833,11.8528144 8.14718234,11.7039183 8.09610421,11.513292 C8.04502608,11.3226657 8.0995258,11.1192699 8.23907385,10.9797218 L16.0500786,3.1690573 L16.0500959,3.16888469 Z M15.8882218,8.89881461 C15.8882218,8.59375795 16.1355189,8.34646067 16.4405754,8.34646067 C16.7456318,8.34646067 16.992929,8.59375795 16.992929,8.89881461 L16.992929,14.974708 C16.992929,16.0932247 16.0861542,17 14.9676382,17 L5.02529076,17 C3.90677473,17 3,16.0932247 3,14.974708 L3,5.03233702 C3,3.91382029 3.90677473,3.00704499 5.02529076,3.00704499 L10.9170567,3.00704499 C11.2221132,3.00704499 11.4694103,3.25434227 11.4694103,3.55939893 C11.4694103,3.86445559 11.2221132,4.11175287 10.9170567,4.11175287 L5.02529076,4.11175287 C4.51686649,4.11175287 4.10470719,4.52391243 4.10470719,5.03233702 L4.10470719,14.974708 C4.10470719,15.4831326 4.51686649,15.8952921 5.02529076,15.8952921 L14.9676555,15.8952921 C15.4760797,15.8952921 15.888239,15.4831326 15.888239,14.974708 L15.888239,8.89881461 L15.8882218,8.89881461 Z" id="形状"></path>
            </g>
        </g>
    </g>
</svg>