<?xml version="1.0" encoding="UTF-8"?>
<svg width="22px" height="22px" viewBox="0 0 22 22" version="1.1" xmlns="http://www.w3.org/2000/svg" xmlns:xlink="http://www.w3.org/1999/xlink">
    <title>icon-刷新悬浮菜单</title>
    <g id="页面-1" stroke="none" stroke-width="1" fill="none" fill-rule="evenodd">
        <g id="icon-切图" transform="translate(-234, -545)" fill="#333333" fill-rule="nonzero">
            <g id="icon-刷新悬浮菜单" transform="translate(234, 545)">
                <path d="M3.70349591,6.60432728 C3.75282977,6.49579277 3.90083137,6.49579277 3.96003201,6.60432728 L6.11098861,10.4721024 C6.17018925,10.580637 6.10112184,10.6990382 5.98272056,10.6990382 L3.96690679,10.6996102 C3.96625916,10.7553313 3.96625916,10.8110523 3.96625916,10.8667734 C3.96625916,14.4385453 6.86709053,17.3393767 10.4388625,17.3393767 C12.1063472,17.3393767 13.6850309,16.7079032 14.8887773,15.5633575 L15.1180242,15.8073696 C15.2331433,15.5861593 15.4644758,15.4350895 15.7310927,15.4350895 C16.1125414,15.4350895 16.4217668,15.7443148 16.4217668,16.1257636 C16.4217668,16.5072124 16.1125414,16.8164377 15.7310927,16.8164377 C15.6800185,16.8164377 15.6302392,16.810894 15.5823236,16.8003754 C14.1499082,18.0441417 12.3377793,18.720725 10.4289957,18.720725 C6.09748221,18.720725 2.57504411,15.1982869 2.57504411,10.8667734 L2.57841254,10.6988218 L1.67094059,10.6990382 C1.57791101,10.6990382 1.50662861,10.6048005 1.52544164,10.5157406 L1.54267254,10.4721024 Z M10.4289957,3.01282177 C14.4244872,3.01282177 17.7622791,5.97246989 18.2302836,9.9286578 L20.0527394,9.92942991 C20.1711407,9.92942991 20.2402081,10.0478312 20.1810074,10.1563657 L18.0300509,14.0241409 C17.980717,14.1228086 17.8327154,14.1228086 17.7735147,14.0241409 L15.6126914,10.1563657 C15.5534907,10.057698 15.6324249,9.92942991 15.7409594,9.92942991 L16.8302308,9.9291786 C16.3723738,6.75265749 13.6671646,4.39417004 10.419129,4.39417004 C9.41877287,4.39417004 8.45334187,4.62118309 7.5720155,5.05285486 C7.50312421,5.35924805 7.22844708,5.58804962 6.90033048,5.58804962 C6.51888169,5.58804962 6.20965634,5.27882428 6.20965634,4.89737548 C6.20965634,4.81809397 6.2230145,4.74193242 6.24760287,4.67101877 L6.03828157,4.35470295 C7.33082888,3.47656012 8.85031198,3.01282177 10.4289957,3.01282177 Z" id="形状结合"></path>
            </g>
        </g>
    </g>
</svg>