<?xml version="1.0" encoding="UTF-8"?>
<svg width="28px" height="28px" viewBox="0 0 28 28" version="1.1" xmlns="http://www.w3.org/2000/svg" xmlns:xlink="http://www.w3.org/1999/xlink">
    <title>icon-添加</title>
    <g id="页面-1" stroke="none" stroke-width="1" fill="none" fill-rule="evenodd">
        <g id="icon-切图" transform="translate(-103, -147)" fill="#000000" fill-rule="nonzero">
            <g id="icon-添加" transform="translate(103, 147)">
                <path d="M13.5,0 C20.9558441,0 27,6.04415588 27,13.5 C27,20.9558441 20.9558441,27 13.5,27 C6.04415588,27 0,20.9558441 0,13.5 C0,6.04415588 6.04415588,0 13.5,0 Z M13.5,1.5 C6.872583,1.5 1.5,6.872583 1.5,13.5 C1.5,20.127417 6.872583,25.5 13.5,25.5 C20.127417,25.5 25.5,20.127417 25.5,13.5 C25.5,6.872583 20.127417,1.5 13.5,1.5 Z" id="矩形"></path>
                <path d="M20.075,12.5625 L14.45,12.5625 L14.45,6.9375 C14.45,6.41973305 14.030267,6 13.5125,6 C12.994733,6 12.575,6.41973305 12.575,6.9375 L12.575,12.5625 L6.95,12.5625 C6.43223305,12.5625 6.0125,12.982233 6.0125,13.5 C6.0125,14.017767 6.43223305,14.4375 6.95,14.4375 L12.575,14.4375 L12.575,20.0625 C12.575,20.580267 12.994733,21 13.5125,21 C14.030267,21 14.45,20.580267 14.45,20.0625 L14.45,14.4375 L20.075,14.4375 C20.592767,14.4375 21.0125,14.017767 21.0125,13.5 C21.0125,12.982233 20.592767,12.5625 20.075,12.5625 Z" id="路径"></path>
            </g>
        </g>
    </g>
</svg>