<?xml version="1.0" encoding="UTF-8"?>
<svg width="22px" height="22px" viewBox="0 0 22 22" version="1.1" xmlns="http://www.w3.org/2000/svg" xmlns:xlink="http://www.w3.org/1999/xlink">
    <title>icon-删除悬浮菜单</title>
    <g id="页面-1" stroke="none" stroke-width="1" fill="none" fill-rule="evenodd">
        <g id="icon-切图" transform="translate(-188, -545)" fill="#333333" fill-rule="nonzero">
            <g id="icon-删除悬浮菜单" transform="translate(188, 545)">
                <path d="M7.26077733,7.59395431 L7.36576178,7.69156251 L8.108,17.873 L14.71,17.873 L15.4515826,7.6915726 L15.5565678,7.59395431 L16.715018,7.59395431 L16.8200064,7.70681804 L16.0310254,18.6051927 C16.0053219,18.9629321 15.7071286,19.239755 15.3487378,19.2388377 L7.47754281,19.2388377 C7.11888199,19.239755 6.82068875,18.9629321 6.7949927,18.6052957 L6.00120214,7.70686409 L6.10618719,7.59395431 L7.26077733,7.59395431 Z M10.5311812,7.59395431 L10.6364444,7.69921747 L10.6364444,15.3666968 L10.5311812,15.4719599 L9.37659109,15.4719599 L9.27132794,15.3666968 L9.27132794,7.69921747 L9.37659109,7.59395431 L10.5311812,7.59395431 Z M13.4407698,7.59395431 L13.546033,7.69921747 L13.546033,15.3666968 L13.4407698,15.4719599 L12.2861797,15.4719599 L12.1809165,15.3666968 L12.1809165,7.69921747 L12.2861797,7.59395431 L13.4407698,7.59395431 Z M18.8173451,5.60612199 L18.9226083,5.71138514 L18.9226083,6.86597528 L18.8173451,6.97123844 L4,6.97123844 L3.89473684,6.86597528 L3.89473684,5.71138514 L4,5.60612199 L18.8173451,5.60612199 Z M15.1130207,2.89473684 L15.2182838,3 L15.2182838,4.15459014 L15.1130207,4.2598533 L7.70434023,4.2598533 L7.59907707,4.15459014 L7.59907707,3 L7.70434023,2.89473684 L15.1130207,2.89473684 Z" id="形状结合"></path>
            </g>
        </g>
    </g>
</svg>