<?xml version="1.0" encoding="UTF-8"?>
<svg width="22px" height="22px" viewBox="0 0 22 22" version="1.1" xmlns="http://www.w3.org/2000/svg" xmlns:xlink="http://www.w3.org/1999/xlink">
    <title>icon-复制悬浮菜单</title>
    <g id="页面-1" stroke="none" stroke-width="1" fill="none" fill-rule="evenodd">
        <g id="icon-切图" transform="translate(-50, -545)" fill="#333333" fill-rule="nonzero">
            <g id="icon-复制悬浮菜单" transform="translate(50, 545)">
                <path d="M17.7447917,2.26096491 C18.8461815,2.26096491 19.7390351,3.15381846 19.7390351,4.25520833 L19.7390351,14.4114583 C19.7390351,15.5128482 18.8461815,16.4057018 17.7447917,16.4057018 L16.4049649,16.4049649 L16.4057018,17.7447917 C16.4057018,18.8461815 15.5128482,19.7390351 14.4114583,19.7390351 L4.25520833,19.7390351 C3.15381846,19.7390351 2.26096491,18.8461815 2.26096491,17.7447917 L2.26096491,7.58854167 C2.26096491,6.4871518 3.15381846,5.59429825 4.25520833,5.59429825 L5.59396491,5.59396491 L5.59429825,4.25520833 C5.59429825,3.15381846 6.4871518,2.26096491 7.58854167,2.26096491 L17.7447917,2.26096491 Z M14.4114583,7.23903509 L4.25520833,7.23903509 C4.06218154,7.23903509 3.90570175,7.39551487 3.90570175,7.58854167 L3.90570175,17.7447917 C3.90570175,17.9378185 4.06218154,18.0942982 4.25520833,18.0942982 L14.4114583,18.0942982 C14.6044851,18.0942982 14.7609649,17.9378185 14.7609649,17.7447917 L14.7609649,7.58854167 C14.7609649,7.39551487 14.6044851,7.23903509 14.4114583,7.23903509 Z M17.7447917,3.90570175 L7.58854167,3.90570175 C7.39551487,3.90570175 7.23903509,4.06218154 7.23903509,4.25520833 L7.23896491,5.59396491 L14.4114583,5.59429825 C15.5128482,5.59429825 16.4057018,6.4871518 16.4057018,7.58854167 L16.4049649,14.7609649 L17.7447917,14.7609649 C17.9378185,14.7609649 18.0942982,14.6044851 18.0942982,14.4114583 L18.0942982,4.25520833 C18.0942982,4.06218154 17.9378185,3.90570175 17.7447917,3.90570175 Z" id="形状结合"></path>
            </g>
        </g>
    </g>
</svg>