<?xml version="1.0" encoding="UTF-8"?>
<svg width="30px" height="30px" viewBox="0 0 30 30" version="1.1" xmlns="http://www.w3.org/2000/svg" xmlns:xlink="http://www.w3.org/1999/xlink">
    <title>icon-点赞</title>
    <g id="页面-1" stroke="none" stroke-width="1" fill="none" fill-rule="evenodd">
        <g id="icon-切图" transform="translate(-372, -85)" fill="#666666" fill-rule="nonzero">
            <g id="icon-点赞" transform="translate(372, 85)">
                <path d="M9.48921241,22.9993423 C8.2412979,23.0214384 7.17451254,22.1048341 7.00721218,20.8667526 L7,20.7595212 L7,15.7196422 L7.00721286,15.6124057 C7.17534587,14.3682218 8.24488434,13.3780704 9.475078,13.3999778 L10.9112146,13.3995264 L13.5423696,7.47507833 C13.6563876,7.21828211 13.8951941,7.04264197 14.1686717,7.00678115 L14.2726749,7 C15.9057943,7 17.2296619,8.32520002 17.2296619,9.95994096 L17.2292568,12.0392391 L20.7369995,12.0399427 C21.3338169,12.0331552 21.9059537,12.2652002 22.3287637,12.6800615 L22.4510023,12.8099483 C22.8817735,13.3058592 23.073267,13.9661339 22.9745663,14.6170788 L21.9821801,21.0955946 C21.8149133,22.199932 20.860349,23.0121567 19.7534902,22.9998623 L11.3956066,22.9998623 L9.48921241,22.9993423 Z M14.7521009,8.68795949 L12.1943871,14.4487812 L12.1943871,21.3990144 L19.7624233,21.3998504 C20.0494049,21.403021 20.2990623,21.2153311 20.3811088,20.9467879 L20.4020711,20.8544299 L21.3944763,14.3757888 C21.4226267,14.1901316 21.3679084,14.0014616 21.2448673,13.8598147 C21.1217521,13.7181029 20.9427128,13.637668 20.7460788,13.6398526 L16.4304762,13.6398526 C15.9890982,13.6398526 15.6312906,13.281689 15.6312906,12.8398718 L15.6312906,9.95994096 C15.6312906,9.38556222 15.2755973,8.89436303 14.7726659,8.69500999 L14.7521009,8.68795949 Z M10.5956961,21.3990144 L10.5956961,14.999808 L9.46094358,14.9998143 C9.08508695,14.9931592 8.71543491,15.3080957 8.61146558,15.7215828 L8.59805165,15.7860291 L8.59805165,20.6905514 L8.61224574,20.7582859 C8.70350732,21.1029476 8.99991495,21.3568464 9.36396967,21.3947424 L9.475078,21.3995059 L10.5956961,21.3990144 Z" id="形状结合"></path>
            </g>
        </g>
    </g>
</svg>