<?xml version="1.0" encoding="UTF-8"?>
<svg width="28px" height="28px" viewBox="0 0 28 28" version="1.1" xmlns="http://www.w3.org/2000/svg" xmlns:xlink="http://www.w3.org/1999/xlink">
    <title>icon-录音</title>
    <g id="页面-1" stroke="none" stroke-width="1" fill="none" fill-rule="evenodd">
        <g id="icon-切图" transform="translate(-155, -147)" fill="#121212" fill-rule="nonzero">
            <g id="icon-录音" transform="translate(155, 147)">
                <path d="M14,0.5 C21.4558441,0.5 27.5,6.54415588 27.5,14 C27.5,21.4558441 21.4558441,27.5 14,27.5 C6.54415588,27.5 0.5,21.4558441 0.5,14 C0.5,6.54415588 6.54415588,0.5 14,0.5 Z M14,2 C7.372583,2 2,7.372583 2,14 C2,20.627417 7.372583,26 14,26 C20.627417,26 26,20.627417 26,14 C26,7.372583 20.627417,2 14,2 Z" id="矩形"></path>
                <path d="M8,14 C8,16.1435935 9.14359346,18.1243556 11,19.1961524 C12.8564064,20.2679492 15.1435936,20.2679492 17,19.1961524 C18.8564065,18.1243556 20,16.1435935 20,14 C20,11.8564065 18.8564065,9.87564435 17,8.80384758 C15.1435936,7.73205081 12.8564064,7.73205081 11,8.80384758 C9.14359348,9.87564435 8,11.8564065 8,14 L8,14 Z" id="路径"></path>
            </g>
        </g>
    </g>
</svg>