<?xml version="1.0" encoding="UTF-8"?>
<svg width="22px" height="22px" viewBox="0 0 22 22" version="1.1" xmlns="http://www.w3.org/2000/svg" xmlns:xlink="http://www.w3.org/1999/xlink">
    <title>icon-复制悬浮菜单</title>
    <g id="页面-1" stroke="none" stroke-width="1" fill="none" fill-rule="evenodd">
        <g id="icon-切图" transform="translate(-326, -545)" fill="#333333" fill-rule="nonzero">
            <g id="icon-复制悬浮菜单" transform="translate(326, 545)">
                <path d="M15.5379688,4.31039063 L5.47988281,4.31039063 L5.47988281,16.9794141 L3.81794922,16.9794141 L3.81794922,2.8171875 L14.8447656,2.8171875 L14.8447656,3.88453125 L16.6625391,3.88453125 L16.6625391,1 L2,1 L2,18.796582 L5.4796875,18.796582 L5.4796875,20.9955078 L19.8186523,20.9955078 L19.8186523,8.45847656 L15.5379883,4.31039063 L15.5379688,4.31039063 Z M15.0515625,6.36988281 L17.5689453,8.80917969 L15.0515625,8.809375 L15.0515625,6.36988281 Z M7.29763672,19.1785352 L7.29763672,6.12734375 L13.2337891,6.12734375 L13.2337891,10.6265234 L18.0010742,10.6261328 L18.0010742,19.1785352 L7.29763672,19.1785352 L7.29763672,19.1785352 Z" id="形状"></path>
            </g>
        </g>
    </g>
</svg>