<?xml version="1.0" encoding="UTF-8"?>
<svg width="28px" height="28px" viewBox="0 0 28 28" version="1.1" xmlns="http://www.w3.org/2000/svg" xmlns:xlink="http://www.w3.org/1999/xlink">
    <title>icon-语音</title>
    <g id="页面-1" stroke="none" stroke-width="1" fill="none" fill-rule="evenodd">
        <g id="icon-切图" transform="translate(-51, -147)" fill="#000000" fill-rule="nonzero">
            <g id="icon-语音" transform="translate(51, 147)">
                <path d="M13.5,0 C20.9558441,0 27,6.04415588 27,13.5 C27,20.9558441 20.9558441,27 13.5,27 C6.04415588,27 0,20.9558441 0,13.5 C0,6.04415588 6.04415588,0 13.5,0 Z M13.5,1.5 C6.872583,1.5 1.5,6.872583 1.5,13.5 C1.5,20.127417 6.872583,25.5 13.5,25.5 C20.127417,25.5 25.5,20.127417 25.5,13.5 C25.5,6.872583 20.127417,1.5 13.5,1.5 Z M15.502118,5.5 C15.7203043,5.5 15.9291346,5.58861473 16.0807359,5.74552984 C20.2374502,9.9315247 20.2423676,16.6858283 16.0917703,20.8778712 C15.7690443,21.2001973 15.2462261,21.2001973 14.9235001,20.8778712 C14.601174,20.5551451 14.601174,20.0323269 14.9235001,19.7096009 C18.4703267,16.1558469 18.4703267,10.4014173 14.9235001,6.84766336 C14.6323634,6.53796495 14.6323634,6.05522825 14.9235001,5.74552984 C15.0751013,5.58861473 15.2839316,5.5 15.502118,5.5 Z M11.35257,8.64414537 C11.6663489,8.36349567 12.1409246,8.36349567 12.4547035,8.64414537 C15.0443457,11.315799 15.0443457,15.5610971 12.4547035,18.2327507 C12.1429004,18.5185265 11.664373,18.5185265 11.35257,18.2327507 C11.0719098,17.9189691 11.0719098,17.4443813 11.35257,17.1305997 C13.3841755,15.0883742 13.3841755,11.7885219 11.35257,9.74629638 C11.0667835,9.43449077 11.0667835,8.95595099 11.35257,8.64414537 Z M7.605316,12.4024338 C7.99837246,12.0059154 8.59188171,11.8858288 9.10816849,12.0983569 C9.62445526,12.3108851 9.96142481,12.8140009 9.96142481,13.37232 C9.96142481,13.9306392 9.62445526,14.433755 9.10816849,14.6462831 C8.59188171,14.8588113 7.99837246,14.7387247 7.605316,14.3422063 C7.34685884,14.0856296 7.2015,13.7365064 7.2015,13.37232 C7.2015,13.0081337 7.34685884,12.6590105 7.605316,12.4024338 Z" id="形状结合"></path>
            </g>
        </g>
    </g>
</svg>