<?xml version="1.0" encoding="UTF-8"?>
<svg width="30px" height="30px" viewBox="0 0 30 30" version="1.1" xmlns="http://www.w3.org/2000/svg" xmlns:xlink="http://www.w3.org/1999/xlink">
    <title>icon-微信</title>
    <g id="页面-1" stroke="none" stroke-width="1" fill="none" fill-rule="evenodd">
        <g id="icon-切图" transform="translate(-418, -85)" fill="#666666" fill-rule="nonzero">
            <g id="icon-微信" transform="translate(418, 85)">
                <path d="M19.6551551,11.8125877 C22.6943692,12.1455385 25.1226204,14.3560178 25.2451479,16.965996 L25.25,17.1728499 C25.25,18.5776112 24.462787,19.9738739 23.0314581,21.1523006 L22.935,21.228 L23.3393834,22.5334946 C23.3974541,22.7196086 23.3509533,22.9194585 23.2239546,23.0617726 L23.1538586,23.127805 C23.053824,23.207454 22.9290624,23.25 22.801848,23.25 C22.7093417,23.25 22.6173958,23.2267681 22.5343855,23.1826641 L20.843,22.281 L20.6683029,22.3233937 C19.9814919,22.4846377 19.5192174,22.562915 19.0433056,22.5783192 L18.8637342,22.5811879 C16.2177582,22.5811879 13.8720053,21.2013285 12.9169018,19.1530952 L12.7990363,19.1736935 C12.6308876,19.2061652 12.4436568,19.2269877 12.2842033,19.2340178 L12.1705536,19.2366708 C11.7436676,19.2366708 11.3433849,19.1995872 10.8861623,19.1247682 C10.713193,19.0964639 10.5695566,19.0701617 10.3273576,19.02246 L10.0475675,18.9667583 L9.847,18.927 L7.61972874,20.0135583 C7.56784076,20.0387168 7.51261125,20.0558042 7.45616443,20.0644005 L7.37084674,20.0708739 C7.23686925,20.0708891 7.10706657,20.0238955 7.00363912,19.9370053 C6.83075105,19.7899262 6.76451685,19.5541143 6.8372583,19.3391828 L7.391,17.714 L7.30862839,17.6536936 C5.71324785,16.4338453 4.83228156,14.9153378 4.75548996,13.2340553 L4.75,12.9927794 C4.75,9.53945226 8.08770427,6.75 12.1705536,6.75 C15.6894157,6.75 18.8307037,8.83750416 19.5845736,11.6656627 L19.619,11.809 L19.6551551,11.8125877 Z M18.863999,13.1066977 C16.0967575,13.1066977 13.8629973,14.9462442 13.8629973,17.1810311 C13.8629973,19.4158955 16.0971319,21.2561589 18.863999,21.2561589 C19.3555428,21.2561589 19.7714166,21.1791891 20.6832644,20.9546035 C20.7276305,20.9430425 20.7732454,20.937311 20.8191903,20.9373112 C20.910112,20.9374231 20.9996355,20.9598951 21.0791894,21.0025415 L21.696,21.331 L21.5949435,21.0003064 C21.5376285,20.8133176 21.5874794,20.6133703 21.7190941,20.4746866 L21.79184,20.4106853 C23.1287439,19.430539 23.854167,18.2803987 23.854167,17.1810311 C23.854167,14.986875 21.5756784,13.1066977 18.863999,13.1066977 Z M12.1716533,8.05900427 C8.81851794,8.05900427 6.10744686,10.2888369 6.10744686,13.0019932 C6.10744686,14.5055253 6.90948046,15.8154519 8.51690072,16.9080258 C8.71835607,17.045993 8.80435352,17.2984304 8.72565909,17.5290823 L8.487,18.226 L9.60802952,17.679277 C9.6905519,17.6378493 9.78195814,17.6182764 9.87235347,17.6214425 L9.96204537,17.6322209 L10.341502,17.7069947 C11.2476172,17.8895881 11.631744,17.9455182 12.1719946,17.9455182 C12.3626804,17.9455766 12.5532799,17.9376329 12.7432632,17.9217092 L12.546,17.933 L12.5120359,17.7609638 C12.4840444,17.5988985 12.4651506,17.4373551 12.4556649,17.2760708 L12.4485312,17.0343059 C12.4485312,14.3097132 14.920657,12.0784676 18.0583941,11.8350727 L18.211,11.825 L18.1778307,11.7187419 C17.4721861,9.67764241 15.1174125,8.15659519 12.4324726,8.063523 L12.1716533,8.05900427 Z M20.7423953,14.7487589 C21.3574496,14.7487589 21.8529171,15.1624368 21.8529171,15.6697752 C21.8529171,16.1781234 21.3580164,16.5883489 20.7423953,16.5883489 C20.2659347,16.5883489 19.8111989,16.1440917 19.8111989,15.6697752 C19.8111989,15.1971028 20.2667818,14.7487589 20.7423953,14.7487589 Z M16.9724882,14.7487589 C17.5878959,14.7487589 18.0785503,15.1618482 18.0785503,15.6697752 C18.0785503,16.1788398 17.5888472,16.5883489 16.9724882,16.5883489 C16.4921304,16.5883489 16.0363027,16.1451835 16.0363027,15.6697752 C16.0363027,15.1960071 16.4929858,14.7487589 16.9724882,14.7487589 Z M9.94289423,9.9006309 C10.5942413,9.9006309 11.0480642,10.3401743 11.0484269,10.9837617 C11.0484269,11.6235336 10.5919348,12.069891 9.94289423,12.069891 C9.26611913,12.069891 8.65860634,11.6117594 8.65860634,10.9837617 C8.65860634,10.3517783 9.26286954,9.9006309 9.94289423,9.9006309 Z M14.7423851,9.90065076 C15.3956731,9.90065076 15.8504022,10.3399518 15.8504022,10.9837816 C15.8504022,11.6238601 15.3930767,12.0699109 14.7423851,12.0699109 C14.0661483,12.0699109 13.4612975,11.6122579 13.4605816,10.9837816 C13.4605816,10.3515435 14.0622565,9.90065076 14.7423851,9.90065076 Z" id="形状结合"></path>
            </g>
        </g>
    </g>
</svg>