<svg width="25" height="20" viewBox="0 0 25 20" fill="none" xmlns="http://www.w3.org/2000/svg">
<path d="M13.1025 0C13.4237 0.00205939 13.8053 0.311393 14.5674 0.930664L23.5889 8.26172C24.2206 8.77508 24.5364 9.03212 24.6523 9.3418C24.754 9.61335 24.7552 9.91205 24.6562 10.1846C24.5433 10.4954 24.2304 10.7558 23.6035 11.2754L14.5781 18.7549C13.8141 19.3881 13.4319 19.7054 13.1094 19.71C12.829 19.7137 12.5619 19.5883 12.3857 19.3701C12.1832 19.119 12.1836 18.6224 12.1836 17.6299V14.4688H9.36328C5.33732 14.4688 3.05921 15.8267 1.10742 17.5645C0.684708 17.9408 3.84442e-05 17.6529 0 17.0869C0 9.60405 6.41734 5.42202 12.1836 4.91699V2.06543C12.1836 1.08353 12.1829 0.592306 12.3838 0.341797C12.5584 0.124019 12.8234 -0.00172072 13.1025 0Z" fill="white"/>
</svg>
