<?xml version="1.0" encoding="UTF-8"?>
<svg width="30px" height="30px" viewBox="0 0 30 30" version="1.1" xmlns="http://www.w3.org/2000/svg" xmlns:xlink="http://www.w3.org/1999/xlink">
    <title>icon-刷薪</title>
    <g id="页面-1" stroke="none" stroke-width="1" fill="none" fill-rule="evenodd">
        <g id="icon-切图" transform="translate(-96, -85)" fill="#666666" fill-rule="nonzero">
            <g id="icon-刷薪" transform="translate(96, 85)">
                <path d="M22.3946868,7.77777778 C22.8307011,7.77777778 23.1841605,8.13123719 23.1841605,8.56725147 L23.1841605,14.7894737 C23.1841605,15.225488 22.8307011,15.5789474 22.3946868,15.5789474 C21.9586726,15.5789474 21.6052132,15.225488 21.6052132,14.7894737 L21.6052132,8.56725147 C21.6052132,8.13123719 21.9586726,7.77777778 22.3946868,7.77777778 Z" id="路径"></path>
                <path d="M8.18416055,14 C8.62017483,14 8.97363424,14.3534594 8.97363424,14.7894737 L8.97363424,21.0116959 C8.97363424,21.4477102 8.62017483,21.8011696 8.18416055,21.8011696 C7.74814626,21.8011696 7.39468685,21.4477102 7.39468685,21.0116959 L7.39468685,14.7894737 C7.39468685,14.3534594 7.74814626,14 8.18416055,14 Z" id="路径"></path>
                <path d="M7.78947369,14 C8.22548798,14 8.57894739,14.3534594 8.57894739,14.7894737 C8.57894739,18.2167834 11.4040169,21 14.8947369,21 C16.556655,21 18.1146847,20.3671311 19.2848928,19.2542457 C19.6008428,18.9537726 20.1005524,18.9663191 20.4010255,19.282269 C20.7014986,19.5982189 20.6889522,20.0979285 20.3730022,20.3984017 C18.9115822,21.7882339 16.9649624,22.5789474 14.8947369,22.5789474 C10.53722,22.5789474 7,19.0941307 7,14.7894737 C7,14.3534594 7.35345941,14 7.78947369,14 Z M14.8947369,7 C19.2522539,7 22.7894739,10.4848167 22.7894739,14.7894737 C22.7894739,15.225488 22.4360145,15.5789474 22.0000002,15.5789474 C21.5639859,15.5789474 21.2105265,15.225488 21.2105265,14.7894737 C21.2105265,11.362164 18.385457,8.57894739 14.8947369,8.57894739 C13.1544811,8.57894739 11.5292665,9.27334062 10.346038,10.4808959 C10.0408823,10.7923256 9.5410411,10.7974116 9.22961144,10.4922559 C8.91818178,10.1871001 8.91309576,9.68725891 9.21825149,9.37582925 C10.6961056,7.86759083 12.7266861,7 14.8947369,7 Z" id="路径-3"></path>
            </g>
        </g>
    </g>
</svg>