<?xml version="1.0" encoding="UTF-8"?>
<svg width="30px" height="30px" viewBox="0 0 30 30" version="1.1" xmlns="http://www.w3.org/2000/svg" xmlns:xlink="http://www.w3.org/1999/xlink">
    <title>icon-复制</title>
    <g id="页面-1" stroke="none" stroke-width="1" fill="none" fill-rule="evenodd" stroke-dasharray="0,0" stroke-linejoin="round">
        <g id="icon-切图" transform="translate(-188, -85)" stroke="#666666" stroke-width="1.5">
            <g id="icon-点赞" transform="translate(188, 85)">
                <path d="M16.5891729,12.5999684 L16.5891729,9.39999408 C16.5891729,8.07450694 15.5159065,7 14.1919034,7 L10.9955441,14.1999556 L10.9955441,22.9999888 L20.280968,22.9999888 C21.0778825,23.0089071 21.7596837,22.428734 21.8791476,21.6398959 L22.9818916,14.4399536 C23.0522559,13.975824 22.9154784,13.5041834 22.6078288,13.149964 C22.3001348,12.7957446 21.8526001,12.5946351 21.3837119,12.5999684 L16.5891729,12.5999684 Z" id="路径-1"></path>
                <path d="M10.9954492,14.1112001 L8.86187932,14.1112001 C7.92575445,14.0946225 7.1255015,14.8709273 7,15.7997643 L7,21.3997194 C7.1255015,22.3286008 7.92575445,23.0162842 8.86187932,22.9997066 L10.9954492,22.9997066 L10.9954492,14.1112001 Z" id="路径-2"></path>
            </g>
        </g>
    </g>
</svg>