<?xml version="1.0" encoding="UTF-8"?>
<svg width="48px" height="48px" viewBox="0 0 48 48" version="1.1" xmlns="http://www.w3.org/2000/svg" xmlns:xlink="http://www.w3.org/1999/xlink">
    <title>分享微信</title>
    <defs>
        <rect id="path-1" x="0" y="0" width="48" height="48"></rect>
        <rect id="path-3" x="0" y="0" width="30.3157902" height="30.3157902"></rect>
    </defs>
    <g id="页面-1" stroke="none" stroke-width="1" fill="none" fill-rule="evenodd">
        <g id="1对话-对话分享中" transform="translate(-163, -708)">
            <g id="编组-19" transform="translate(0, 692)">
                <g id="分享微信" transform="translate(163, 16)">
                    <mask id="mask-2" fill="white">
                        <use xlink:href="#path-1"></use>
                    </mask>
                    <use id="容器-707" fill="#34C759" fill-rule="nonzero" xlink:href="#path-1"></use>
                    <g id="容器" mask="url(#mask-2)">
                        <g transform="translate(8.8418, 8.8418)">
                            <mask id="mask-4" fill="white">
                                <use xlink:href="#path-3"></use>
                            </mask>
                            <g id="容器" stroke="none" fill="none" fill-rule="nonzero"></g>
                            <path d="M20.1800652,10.8072219 C20.505722,10.8072219 20.8313808,10.8373027 21.1553497,10.8657227 C20.2838631,6.82143641 15.9121122,3.79980469 10.932065,3.79980469 C5.36319637,3.81934416 0.800048828,7.58315063 0.800048828,12.3624172 C0.800048828,15.1177206 2.32113743,17.3901892 4.84782791,19.1496 L3.82795596,22.1677971 L7.37454748,20.4101925 C8.64514542,20.6587296 9.66510773,20.9072666 10.9195414,20.9072666 C11.2452002,20.9072666 11.5548706,20.8930569 11.8643637,20.8645744 C11.6632347,20.1782513 11.5590525,19.4671774 11.5548401,18.7520008 C11.5691986,14.3703642 15.3663406,10.8089981 20.1819019,10.8089981 L20.1800652,10.8072219 L20.1800652,10.8072219 Z M14.729352,8.08377504 C15.4987936,8.08377504 15.9998035,8.58084774 15.9998035,9.34421921 C15.9998035,10.0899167 15.4987936,10.6047816 14.729352,10.6047816 C13.9758987,10.6047816 13.2082329,10.1059322 13.2082329,9.34418964 C13.2082329,8.58084679 13.9758987,8.08377457 14.729352,8.08377504 Z M7.63758945,10.6047831 C6.88608932,10.6047831 6.1166482,10.1059337 6.1166482,9.34419012 C6.1166482,8.58084822 6.88608932,8.083776 7.63758945,8.083776 C8.39104319,8.083776 8.90818691,8.58084822 8.90818691,9.34421968 C8.90818691,10.0899167 8.40714741,10.6047831 7.63758945,10.6047831 Z M29.4316463,18.6472006 C29.4316463,14.6313353 25.3838692,11.3487029 20.8170223,11.3487029 C16.0015793,11.3487029 12.204318,14.6313353 12.204318,18.6472006 C12.204318,22.6773052 16.0015793,25.9474754 20.8170223,25.9474754 C21.822773,25.9474754 22.8427029,25.6989365 23.8609753,25.4486256 L26.6382179,26.9576931 L25.8705502,24.4508076 C27.9105625,22.9134064 29.4316463,20.9036541 29.4316463,18.6472006 Z M18.0254822,17.3866072 C17.5244732,17.3866072 17.0055218,16.8895359 17.0055218,16.3747311 C17.0055218,15.8776579 17.5244732,15.3628225 18.0254822,15.3628225 C18.7949238,15.3628225 19.2960815,15.8616714 19.2960815,16.3747311 C19.2960815,16.8895664 18.7949238,17.3866377 18.0254822,17.3866072 Z M23.5961552,17.3866072 C23.0933418,17.3866072 22.5904064,16.8895359 22.5904064,16.3747311 C22.5904064,15.8776579 23.0915337,15.3628225 23.5961552,15.3628225 C24.3638191,15.3628225 24.8666058,15.8616714 24.8666058,16.3747311 C24.8666058,16.8895664 24.3638191,17.3866377 23.5961552,17.3866072 Z" id="路径" stroke="none" fill="#FFFFFF" fill-rule="nonzero" mask="url(#mask-4)"></path>
                        </g>
                    </g>
                </g>
            </g>
        </g>
    </g>
</svg>