<?xml version="1.0" encoding="UTF-8"?>
<svg width="31px" height="30px" viewBox="0 0 31 30" version="1.1" xmlns="http://www.w3.org/2000/svg" xmlns:xlink="http://www.w3.org/1999/xlink">
    <title>icon/复制</title>
    <defs>
        <rect id="path-1" x="0" y="0" width="16" height="16"></rect>
    </defs>
    <g id="页面-1" stroke="none" stroke-width="1" fill="none" fill-rule="evenodd">
        <g id="1对话-默认模式1" transform="translate(-70, -202)">
            <rect fill="#F3F3F3" x="0" y="0" width="375" height="812"></rect>
            <g id="编组-6" transform="translate(16, 154)">
                <g id="标签组" fill="#FFFFFF">
                    <rect id="矩形" x="0" y="0" width="343" height="90" rx="8"></rect>
                </g>
                <g id="编组-2" transform="translate(12, 48)">
                    <g id="icon/复制" transform="translate(42.5, 0)">
                        <rect id="矩形" fill-opacity="0" fill="#D8D8D8" x="7.5" y="7.5" width="15" height="15"></rect>
                        <g id="复制" transform="translate(7, 7)">
                            <mask id="mask-2" fill="white">
                                <use xlink:href="#path-1"></use>
                            </mask>
                            <g id="路径"></g>
                            <g id="编组" mask="url(#mask-2)" stroke="#666666" stroke-dasharray="0,0" stroke-linejoin="round" stroke-width="1.5">
                                <g transform="translate(1.6667, 1.6667)">
                                    <path d="M2.66666667,2.4772 L2.66666667,0.9375 C2.66666667,0.419733333 3.0864,0 3.60416667,0 L11.7291667,0 C12.2469333,0 12.6666667,0.419733333 12.6666667,0.9375 L12.6666667,9.0625 C12.6666667,9.58026667 12.2469333,10 11.7291667,10 L10.1721,10" id="路径" stroke-linecap="round" fill-rule="nonzero"></path>
                                    <path d="M9.0625,2.66666667 L0.9375,2.66666667 C0.419733333,2.66666667 0,3.0864 0,3.60416667 L0,11.7291667 C0,12.2469333 0.419733333,12.6666667 0.9375,12.6666667 L9.0625,12.6666667 C9.58026667,12.6666667 10,12.2469333 10,11.7291667 L10,3.60416667 C10,3.0864 9.58026667,2.66666667 9.0625,2.66666667 Z" id="路径-2"></path>
                                </g>
                            </g>
                        </g>
                    </g>
                </g>
            </g>
        </g>
    </g>
</svg>