<?xml version="1.0" encoding="UTF-8"?>
<svg width="24px" height="24px" viewBox="0 0 24 24" version="1.1" xmlns="http://www.w3.org/2000/svg" xmlns:xlink="http://www.w3.org/1999/xlink">
    <title>展开</title>
    <g id="页面-1" stroke="none" stroke-width="1" fill="none" fill-rule="evenodd">
        <g id="icon-切图" transform="translate(-146, -33)" fill="#8E8E93" fill-rule="nonzero">
            <g id="icon-展开" transform="translate(146, 33)">
                <path d="M12,1.5 C6.2015625,1.5 1.5,6.2015625 1.5,12 C1.5,17.7984375 6.2015625,22.5 12,22.5 C17.7984375,22.5 22.5,17.7984375 22.5,12 C22.5,6.2015625 17.7984375,1.5 12,1.5 Z M15.6257813,12.1523438 L9.86015625,16.3242188 C9.7359375,16.4132812 9.5625,16.3242188 9.5625,16.171875 L9.5625,15.0726563 C9.5625,14.8335938 9.67734375,14.60625 9.871875,14.465625 L13.2796875,12 L9.871875,9.534375 C9.67734375,9.39375 9.5625,9.16875 9.5625,8.92734375 L9.5625,7.828125 C9.5625,7.67578125 9.7359375,7.58671875 9.86015625,7.67578125 L15.6257813,11.8476563 C15.7289062,11.9226563 15.7289062,12.0773438 15.6257813,12.1523438 Z" id="形状" transform="translate(12, 12) scale(1, -1) rotate(-90) translate(-12, -12)"></path>
            </g>
        </g>
    </g>
</svg>