<?xml version="1.0" encoding="UTF-8"?>
<svg width="30px" height="30px" viewBox="0 0 30 30" version="1.1" xmlns="http://www.w3.org/2000/svg" xmlns:xlink="http://www.w3.org/1999/xlink">
    <title>矩形</title>
    <g id="页面-1" stroke="none" stroke-width="1" fill="none" fill-rule="evenodd">
        <g id="1对话-默认模式1" transform="translate(-313, -202)">
            <rect fill="#F3F3F3" x="0" y="0" width="375" height="812"></rect>
            <g id="编组-6" transform="translate(16, 154)">
                <g id="标签组" fill="#FFFFFF">
                    <rect id="矩形" x="0" y="0" width="343" height="90" rx="8"></rect>
                </g>
                <g id="编组-2" transform="translate(12, 48)">
                    <g id="矩形" transform="translate(285, 0)">
                        <rect fill="#FFFFFF" x="0" y="0" width="30" height="30" rx="8"></rect>
                        <g id="分享微信" transform="translate(5, 8)" fill="#666666" fill-rule="nonzero" stroke="#666666" stroke-width="0.5">
                            <g id="微信">
                                <path d="M9.74238513,4.81991087 C10.2567596,4.81991087 10.6004022,4.4840056 10.6004022,3.98378159 C10.6004022,3.4778784 10.2573094,3.15065076 9.74238513,3.15065076 C9.22719613,3.15065076 8.71058165,3.47789826 8.71058165,3.98378159 C8.71115184,4.48426375 9.22801069,4.81991087 9.74238513,4.81991087 L9.74238513,4.81991087 Z M4.94289423,3.1506309 C4.42851979,3.1506309 3.90860634,3.4778784 3.90860634,3.98376173 C3.90860634,4.48396589 4.42854016,4.81989101 4.94289423,4.81989101 C5.45531373,4.81989101 5.79842688,4.48398575 5.79842688,3.98376173 C5.79814178,3.47785854 5.45561919,3.1506309 4.94289423,3.1506309 Z M20,10.1728499 C20,7.52782435 17.4837419,5.27402634 14.3950515,5.03951221 C14.3992262,5.00670803 14.4011811,4.9725337 14.3936668,4.93839908 C13.7744788,2.12283944 10.6693751,0 7.17055365,0 C3.21688176,0 0,2.68841367 0,5.99277941 C0,7.76561494 0.928069238,9.36305136 2.68694922,10.6226564 L2.07387043,12.4198965 C2.03427958,12.5368781 2.07043574,12.6656039 2.16563065,12.746588 C2.22269074,12.7945211 2.29550433,12.8208825 2.37081838,12.8208739 C2.41836833,12.8208739 2.46646812,12.8100319 2.51065801,12.7886059 L4.81252386,11.6653805 L5.09611302,11.7215169 C5.80482118,11.8635757 6.41677994,11.9866708 7.17055365,11.9866708 C7.3924195,11.9866708 8.00299351,11.9075 8.05443299,11.844056 C8.88436808,13.8692971 11.1720402,15.3311879 13.8637342,15.3311879 C14.5532595,15.3311879 15.251134,15.1690733 15.8775512,15.0161328 L17.6519893,15.9620528 C17.6989691,15.9870134 17.7506936,16 17.801848,16 C17.8719206,16 17.9419728,15.9769457 17.9981367,15.9322272 C18.096841,15.8541485 18.1374469,15.7256324 18.1007306,15.6079583 L17.6475296,14.1385018 C19.1667252,12.9678176 20,11.5672261 20,10.1728499 L20,10.1728499 Z M7.76414408,11.1708357 C7.56718992,11.1873436 7.36959843,11.1955788 7.17191803,11.1955182 C6.50630011,11.1955182 5.94327606,11.083285 5.29211658,10.9520683 L4.91371261,10.8775043 C4.84815661,10.8638834 4.77978716,10.8727861 4.72019346,10.9027032 L3.05671885,11.7147059 L3.48906707,10.4483097 C3.53134275,10.3244005 3.48489245,10.189113 3.37563956,10.1142909 C1.70436553,8.97831712 0.857446863,7.59452486 0.857446863,6.00199317 C0.857446863,3.13899455 3.68981545,0.809004271 7.1716533,0.809004271 C10.24951,0.809004271 12.9745603,2.6349778 13.5370141,5.06363877 C10.3098282,5.10486242 7.69853125,7.31717863 7.69853125,10.0343059 C7.69853125,10.4293262 7.75998982,10.8121343 7.86368334,11.1813997 C7.83228204,11.1738142 7.79917017,11.1678372 7.76416444,11.1708357 L7.76414408,11.1708357 Z M16.9396156,13.6122648 C16.8403411,13.6852005 16.7983912,13.8109763 16.8339672,13.927042 L17.1150719,14.8385494 L15.961512,14.2231136 C15.9178081,14.1996855 15.8687551,14.1873724 15.8188825,14.187311 C15.7946901,14.187311 15.7702329,14.1902896 15.7463052,14.1965247 C15.127667,14.3489093 14.4873616,14.5061589 13.863999,14.5061589 C10.9685223,14.5061589 8.61299733,12.5657678 8.61299733,10.1810311 C8.61299733,7.79627453 10.9682576,5.85669766 13.863999,5.85669766 C16.7041466,5.85669766 19.104167,7.83694218 19.104167,10.1810311 C19.104167,11.3698847 18.3356701,12.5888221 16.9396564,13.6123045 L16.9396156,13.6122648 Z M11.9724882,7.99875892 C11.6293954,7.99875892 11.2863027,8.33575633 11.2863027,8.66977515 C11.2863027,9.00623642 11.6293954,9.33834894 11.9724882,9.33834894 C12.4879623,9.33834894 12.8285503,9.00623642 12.8285503,8.66977515 C12.8285503,8.33522019 12.4879623,7.99875892 11.9724882,7.99875892 Z M15.7423953,7.99875892 C15.4042917,7.99875892 15.0611989,8.33575633 15.0611989,8.66977515 C15.0611989,9.00623642 15.4042917,9.33834894 15.7423953,9.33834894 C16.2561996,9.33834894 16.6029171,9.00623642 16.6029171,8.66977515 C16.6029171,8.33522019 16.2567698,7.99875892 15.7423953,7.99875892 Z" id="形状"></path>
                            </g>
                        </g>
                    </g>
                </g>
            </g>
        </g>
    </g>
</svg>