<?xml version="1.0" encoding="UTF-8"?>
<svg width="30px" height="30px" viewBox="0 0 30 30" version="1.1" xmlns="http://www.w3.org/2000/svg" xmlns:xlink="http://www.w3.org/1999/xlink">
    <title>收藏</title>
    <g id="页面-1" stroke="none" stroke-width="1" fill="none" fill-rule="evenodd">
        <g id="1对话-默认模式1" transform="translate(-229, -202)">
            <rect fill="#F3F3F3" x="0" y="0" width="375" height="812"></rect>
            <g id="编组-6" transform="translate(16, 154)">
                <g id="标签组" fill="#FFFFFF">
                    <rect id="矩形" x="0" y="0" width="343" height="90" rx="8"></rect>
                </g>
                <g id="编组-2" transform="translate(12, 48)" fill="#666666" fill-rule="nonzero" stroke="#666666" stroke-width="0.2">
                    <g id="收藏" transform="translate(201, 0)">
                        <g transform="translate(6, 7)" id="形状">
                            <path d="M8.95022581,0.0121909467 C9.17409309,0.144308767 9.35277109,0.320896612 9.4857987,0.497093147 L11.5126014,4.56535126 L16.0558125,5.21531881 C16.3288044,5.26008257 16.6030111,5.43747854 16.7904938,5.66859225 C16.9664593,5.92820637 17.0549637,6.18766265 17.0989618,6.4906209 C17.1,6.73427929 16.9655671,6.96659192 16.7769301,7.15213451 L13.4749717,10.3185489 L14.2595851,14.7864462 C14.3056574,15.1037076 14.2546295,15.4186861 14.0711641,15.6442327 C13.8883357,15.8690014 13.6585674,16.0459999 13.339414,16.0908369 C12.9689024,16.0918093 12.7913325,16.0459078 12.611519,15.9574487 L8.52359783,13.8456052 L4.43954493,15.9553425 C4.16667957,16.1118906 3.84863672,16.1359705 3.5637325,16.0535564 C3.27401599,15.9697502 3.01960705,15.77603 2.88470377,15.5100029 C2.74566646,15.282081 2.70052534,15.0085553 2.74631347,14.7835199 L3.53045706,10.3185484 L0.227591329,7.15125292 C0.0157659126,6.94291398 -0.1,6.6515721 -0.1,6.35602168 C-0.1,6.0753346 0.00398321152,5.79118785 0.227591329,5.57126014 C0.409222055,5.39261891 0.635631322,5.30167919 0.868137475,5.25609016 L5.40931007,4.60641328 L7.43231901,0.545816348 C7.56983759,0.275306072 7.80047247,0.0521742794 8.07487323,-0.0377731127 C8.34939198,-0.127780276 8.66936841,-0.126249033 8.95022581,0.0121909467 Z M8.44106951,1.71915596 L6.6508021,5.35814484 C6.46704545,5.71964928 6.14572721,5.94325099 5.77992153,5.98821882 L1.68449362,6.57484112 L4.6259364,9.38967425 C4.90064935,9.65985249 4.99399911,10.0184506 4.94828283,10.3780348 L4.23149523,14.3736808 L8.44008101,12.2244239 L12.6486599,14.3736773 L11.9326525,10.383083 C11.8420772,10.0278211 11.9757813,9.66352241 12.2532428,9.39062776 L15.2356733,6.57459209 L11.1400315,5.98795564 C10.7782374,5.94350362 10.4569306,5.67844491 10.2743731,5.36423813 L8.44106951,1.71915596 Z"></path>
                        </g>
                    </g>
                </g>
            </g>
            <g id="icon/点赞备份-2" transform="translate(230, 202)">
                <g id="分享2" transform="translate(7, 7)"></g>
            </g>
            <g id="icon/点赞备份-3" transform="translate(232.5, 202)"></g>
        </g>
    </g>
</svg>