<?xml version="1.0" encoding="UTF-8"?>
<svg width="24px" height="24px" viewBox="0 0 24 24" version="1.1" xmlns="http://www.w3.org/2000/svg" xmlns:xlink="http://www.w3.org/1999/xlink">
    <title>图片</title>
    <g id="页面-1" stroke="none" stroke-width="1" fill="none" fill-rule="evenodd">
        <g id="icon-切图" transform="translate(-101, -229)" fill="#666666" fill-rule="nonzero">
            <g id="icon-图片" transform="translate(101, 229)">
                <path d="M21.2857143,21 L2.71428571,21 C2.31979661,21 2,20.6828684 2,20.2916667 L2,4.70833333 C2,4.31713164 2.31979661,4 2.71428571,4 L21.2857143,4 C21.6802034,4 22,4.31713164 22,4.70833333 L22,7.29516667 C22,7.68636836 21.6802034,8.0035 21.2857143,8.0035 C20.8912252,8.0035 20.5714286,7.68636836 20.5714286,7.29516667 L20.5714286,5.41666667 L3.42857143,5.41666667 L3.42857143,19.5833333 L20.5714286,19.5833333 L20.5714286,11.5380833 L15.9657143,16.9554167 C15.7130466,17.2531748 15.2653413,17.2927306 14.9635714,17.0439583 L10.5871429,13.441375 L6.24214286,17.4307083 C5.9527851,17.6963343 5.50107239,17.6790506 5.23321429,17.3921042 C4.96535618,17.1051577 4.9827851,16.6572093 5.27214286,16.3915833 L10.0764286,11.9800833 C10.3394784,11.7388914 10.7419228,11.7279906 11.0178571,11.9545833 L15.3307143,15.50475 L20.74,9.14179167 C20.9337008,8.91521688 21.2490021,8.8318937 21.5307143,8.93283333 C21.8121429,9.03483333 22,9.30116667 22,9.59866667 L22,20.2916667 C22,20.6828684 21.6802034,21 21.2857143,21 Z M7.35714286,11.7916667 C5.97857143,11.7916667 4.85714286,10.6795833 4.85714286,9.3125 C4.85714286,7.94541667 5.97857143,6.83333333 7.35714286,6.83333333 C8.73571429,6.83333333 9.85714286,7.94541667 9.85714286,9.3125 C9.85714286,10.6795833 8.73571429,11.7916667 7.35714286,11.7916667 Z M7.35714286,8.25 C6.76642857,8.25 6.28571429,8.72670833 6.28571429,9.3125 C6.28571429,9.89829167 6.76642857,10.375 7.35714286,10.375 C7.94785714,10.375 8.42857143,9.89829167 8.42857143,9.3125 C8.42857143,8.72670833 7.94785714,8.25 7.35714286,8.25 Z" id="图片"></path>
            </g>
        </g>
    </g>
</svg>