<?xml version="1.0" encoding="UTF-8"?>
<svg width="24px" height="24px" viewBox="0 0 24 24" version="1.1" xmlns="http://www.w3.org/2000/svg" xmlns:xlink="http://www.w3.org/1999/xlink">
    <title>icon-拍摄</title>
    <g id="页面-1" stroke="none" stroke-width="1" fill="none" fill-rule="evenodd">
        <g id="icon-切图" transform="translate(-149, -229)" fill="#666666" fill-rule="nonzero">
            <g id="icon-拍摄" transform="translate(149, 229)">
                <path d="M19.7142857,3 L4.28571429,3 C3.57664286,3 3,3.57664286 3,4.28571429 L3,19.7142857 C3,20.4233571 3.57664286,21 4.28571429,21 L19.7142857,21 C20.4233571,21 21,20.4233571 21,19.7142857 L21,4.28571429 C21,3.57664286 20.4233571,3 19.7142857,3 Z M4.28571429,19.7142857 L4.28571429,4.28571429 L19.7142857,4.28571429 L19.7155714,19.7142857 L4.28571429,19.7142857 Z M12,5.57142857 C8.45528571,5.57142857 5.57142857,8.45528571 5.57142857,12 C5.57142857,15.5447143 8.45528571,18.4285714 12,18.4285714 C15.5447143,18.4285714 18.4285714,15.5447143 18.4285714,12 C18.4285714,8.45528571 15.5447143,5.57142857 12,5.57142857 Z M12,17.1428571 C9.16435714,17.1428571 6.85714286,14.8356429 6.85714286,12 C6.85714286,9.16435714 9.16435714,6.85714286 12,6.85714286 C14.8356429,6.85714286 17.1428571,9.16435714 17.1428571,12 C17.1428571,14.8356429 14.8356429,17.1428571 12,17.1428571 Z M12,7.49997864 C10.7978571,7.49997864 9.66835714,7.968 8.81785714,8.81785714 C8.56684372,9.06887056 8.56684372,9.47584372 8.81785714,9.72685714 C9.06887056,9.97787056 9.47584372,9.97787056 9.72685714,9.72685714 C10.3286062,9.12235049 11.147049,8.78349295 12,8.78571429 C12.8588571,8.78571429 13.6662857,9.12 14.2725,9.72685714 C14.3927156,9.84793391 14.5562458,9.91608038 14.7268663,9.9162012 C14.8974868,9.91632171 15.0611133,9.84840661 15.1815,9.7275 C15.3022138,9.60692041 15.3700414,9.4432988 15.3700414,9.27267857 C15.3700414,9.10205834 15.3022138,8.93843674 15.1815,8.81785714 C14.339818,7.97092248 13.1940324,7.49630931 12,7.49997864 Z" id="形状"></path>
            </g>
        </g>
    </g>
</svg>