<?xml version="1.0" encoding="UTF-8"?>
<svg width="24px" height="24px" viewBox="0 0 24 24" version="1.1" xmlns="http://www.w3.org/2000/svg" xmlns:xlink="http://www.w3.org/1999/xlink">
    <title>icon-文件</title>
    <g id="页面-1" stroke="none" stroke-width="1" fill="none" fill-rule="evenodd">
        <g id="icon-切图" transform="translate(-197, -229)" fill="#666666" fill-rule="nonzero">
            <g id="icon-文件" transform="translate(197, 229)">
                <path d="M15.6923077,10.2 L8.30769231,10.2 C7.96782477,10.2 7.69230769,10.4686292 7.69230769,10.8 C7.69230769,11.1313708 7.96782477,11.4 8.30769231,11.4 L15.6923077,11.4 C16.0321752,11.4 16.3076923,11.1313708 16.3076923,10.8 C16.3076923,10.4686292 16.0321752,10.2 15.6923077,10.2 Z M15.6923077,13.8 L8.30769231,13.8 C7.96782477,13.8 7.69230769,14.0686292 7.69230769,14.4 C7.69230769,14.7313708 7.96782477,15 8.30769231,15 L15.6923077,15 C16.0321752,15 16.3076923,14.7313708 16.3076923,14.4 C16.3076923,14.0686292 16.0321752,13.8 15.6923077,13.8 Z M18.1538462,3 L5.84615385,3 C4.82830769,3 4,3.8076 4,4.8 L4,19.2 C4,20.1924 4.82830769,21 5.84615385,21 L18.1538462,21 C19.1716923,21 20,20.1924 20,19.2 L20,4.8 C20,3.8076 19.1716923,3 18.1538462,3 Z M8.30769231,4.2 L15.6923077,4.2 L15.6923077,6 L8.30769231,6 L8.30769231,4.2 Z M18.7692308,19.2 C18.7692308,19.5313708 18.4937137,19.8 18.1538462,19.8 L5.84615385,19.8 C5.50707692,19.8 5.23076923,19.5312 5.23076923,19.2 L5.23076923,4.8 C5.23076923,4.4694 5.50707692,4.2 5.84615385,4.2 L7.07692308,4.2 L7.07692308,6 C7.07692308,6.6618 7.62892308,7.2 8.30769231,7.2 L15.6923077,7.2 C16.3710769,7.2 16.9230769,6.6618 16.9230769,6 L16.9230769,4.2 L18.1538462,4.2 C18.4935385,4.2 18.7692308,4.4694 18.7692308,4.8 L18.7692308,19.2 Z" id="形状"></path>
            </g>
        </g>
    </g>
</svg>