<?xml version="1.0" encoding="UTF-8"?>
<svg width="28px" height="28px" viewBox="0 0 28 28" version="1.1" xmlns="http://www.w3.org/2000/svg" xmlns:xlink="http://www.w3.org/1999/xlink">
    <title>icon-录发送</title>
    <g id="页面-1" stroke="none" stroke-width="1" fill="none" fill-rule="evenodd">
        <g id="icon-切图" transform="translate(-207, -147)">
            <g id="icon-发送" transform="translate(207, 147)">
                <rect id="矩形" fill="#000000" x="2" y="2" width="24" height="24" rx="12"></rect>
                <path d="M21.0358029,14.5773657 L8.57971162,20.8167646 C7.69604479,21.2456246 6.62968792,20.8958846 6.18120463,20.0368448 C5.98380428,19.6219848 5.94376401,19.1537649 6.08042889,18.716965 L7.44268478,14.3155657 C7.5674202,13.9125458 7.94249296,13.6374658 8.36729869,13.6374658 L13.1348517,13.6374658 C13.4852797,13.6360658 13.7718286,13.3550658 13.7798286,12.9975259 C13.777612,12.645526 13.4945895,12.361006 13.1348517,12.357586 L8.37080498,12.357586 C7.94432672,12.357586 7.56818594,12.0803661 7.4448611,11.6751661 L6.10058001,7.25806683 C5.81933085,6.33682698 6.35025236,5.35424714 7.28975794,5.07826718 C7.72461907,4.94258721 8.19504693,4.9837672 8.59986274,5.19826717 L21.0358029,11.4376662 C21.9045176,11.8780461 22.2541395,12.9376859 21.8017268,13.7974458 C21.640276,14.1410857 21.3652535,14.4134857 21.0358029,14.5773657 Z" id="路径" fill="#FFFFFF" fill-rule="nonzero" transform="translate(14, 13) scale(1, -1) rotate(90) translate(-14, -13)"></path>
                <path d="M14,0.5 C21.4558441,0.5 27.5,6.54415588 27.5,14 C27.5,21.4558441 21.4558441,27.5 14,27.5 C6.54415588,27.5 0.5,21.4558441 0.5,14 C0.5,6.54415588 6.54415588,0.5 14,0.5 Z M14,2 C7.372583,2 2,7.372583 2,14 C2,20.627417 7.372583,26 14,26 C20.627417,26 26,20.627417 26,14 C26,7.372583 20.627417,2 14,2 Z" id="矩形" fill="#121212" fill-rule="nonzero"></path>
            </g>
        </g>
    </g>
</svg>