<?xml version="1.0" encoding="UTF-8"?>
<svg width="24px" height="24px" viewBox="0 0 24 24" version="1.1" xmlns="http://www.w3.org/2000/svg" xmlns:xlink="http://www.w3.org/1999/xlink">
    <title>搜索/icon</title>
    <g id="页面-1" stroke="none" stroke-width="1" fill="none" fill-rule="evenodd">
        <g id="icon-切图" transform="translate(-760, -425)" fill="#333333" fill-rule="nonzero">
            <g id="icon-评论" transform="translate(760, 425)">
                <path d="M17.6236875,4 C19.095999,4 20.3,5.20400104 20.3,6.6763125 L20.3,14.2552656 C20.3,15.7275771 19.095999,16.9315781 17.6236875,16.9315781 L15.957,16.931 L12.4639795,20.2586207 L12.2577269,20.2592303 L8.722,16.931 L6.6763125,16.9315781 C5.2606284,16.9315781 4.09301237,15.8184115 4.00528996,14.4239038 L4,14.2552656 L4,6.6763125 C4,5.20400104 5.20400104,4 6.6763125,4 L17.6236875,4 Z M17.6236875,5.56315625 L6.6763125,5.56315625 C6.04337396,5.56315625 5.56315625,6.04337396 5.56315625,6.6763125 L5.56315625,14.2552656 C5.56315625,14.8882042 6.04337396,15.3684219 6.6763125,15.3684219 L9.28684375,15.3684219 L9.38649775,15.40631 L9.76928757,15.7466854 L12.36,18.216 L14.9556119,15.7431378 L15.3345494,15.4063097 L15.4342031,15.3684219 L17.6236875,15.3684219 C18.256626,15.3684219 18.7368437,14.8882042 18.7368437,14.2552656 L18.7368437,6.6763125 C18.7368437,6.04337396 18.256626,5.56315625 17.6236875,5.56315625 Z" id="形状结合"></path>
                <path d="M7,10.263 C7,10.9605357 7.56552033,11.526 8.263125,11.526 C8.96072967,11.526 9.52625,10.9605357 9.52625,10.263 C9.52625,9.5654644 8.96072967,9.00000005 8.263125,9.00000005 C7.56552033,9.00000005 7,9.5654644 7,10.263 L7,10.263 Z M10.789375,10.263 C10.789375,10.9605357 11.3548953,11.526 12.0525,11.526 C12.7501047,11.526 13.315625,10.9605357 13.315625,10.263 C13.315625,9.5654644 12.7501047,9.00000005 12.0525,9.00000005 C11.3548953,9.00000005 10.789375,9.5654644 10.789375,10.263 Z M14.57875,10.263 C14.57875,10.9605357 15.1442703,11.526 15.841875,11.526 C16.5394797,11.526 17.105,10.9605357 17.105,10.263 C17.105,9.81177358 16.8642498,9.39482315 16.4734375,9.16920992 C16.0826253,8.94359669 15.6011247,8.94359669 15.2103125,9.16920992 C14.8195002,9.39482315 14.57875,9.81177358 14.57875,10.263 Z" id="形状"></path>
            </g>
        </g>
    </g>
</svg>